<svg xmlns="http://www.w3.org/2000/svg" xmlns:xlink="http://www.w3.org/1999/xlink" width="377.999" height="3857.426" viewBox="0 0 377.999 3857.426"><defs><clipPath id="a"><path d="M0,0H378V963.993H0Z" transform="translate(0.001 0.989)" fill="none"/></clipPath><clipPath id="b"><path d="M0,0H23.087V963.993H0Z" transform="translate(0.097 0.485)" fill="none"/></clipPath><clipPath id="c"><path d="M0,0H19.753V963.993H0Z" transform="translate(0.001 0.989)" fill="none"/></clipPath><clipPath id="d"><path d="M0,0H378V15.11H0Z" transform="translate(0.001 0.485)" fill="none"/></clipPath><clipPath id="e"><path d="M0,0H378V14.1H0Z" transform="translate(0.001 0.99)" fill="none"/></clipPath><clipPath id="f"><path d="M0,0H378V3.022H0Z" transform="translate(0.001 0.485)" fill="none"/></clipPath><clipPath id="g"><path d="M0,0H378V19.139H0Z" transform="translate(0.001 0.486)" fill="none"/></clipPath><clipPath id="h"><path d="M0,0H378V6.044H0Z" transform="translate(0.001 0.989)" fill="none"/></clipPath><clipPath id="i"><path d="M0,0H378V1.007H0Z" transform="translate(0.001 0.485)" fill="none"/></clipPath><clipPath id="j"><path d="M0,0H378V4.03H0Z" transform="translate(0.001 0.485)" fill="none"/></clipPath><clipPath id="k"><path d="M0,0H378V10.073H0Z" transform="translate(0.001 0.989)" fill="none"/></clipPath><clipPath id="l"><path d="M0,0H378V27.2H0Z" transform="translate(0.001 0.989)" fill="none"/></clipPath><clipPath id="m"><path d="M0,0H378V11.08H0Z" transform="translate(0.001 0.989)" fill="none"/></clipPath><clipPath id="n"><path d="M0,0H378V15.109H0Z" transform="translate(0.001 0.486)" fill="none"/></clipPath><clipPath id="o"><path d="M0,0H378V7.052H0Z" transform="translate(0.001 0.485)" fill="none"/></clipPath><clipPath id="p"><path d="M0,0H378V17.124H0Z" transform="translate(0.001 0.486)" fill="none"/></clipPath><clipPath id="q"><path d="M0,0H378V28.205H0Z" transform="translate(0.001 0.989)" fill="none"/></clipPath><clipPath id="r"><path d="M0,0H378V16.118H0Z" transform="translate(0.001 0.485)" fill="none"/></clipPath><clipPath id="s"><path d="M0,0H378V23.169H0Z" transform="translate(0.001 0.988)" fill="none"/></clipPath><clipPath id="t"><path d="M0,0H378V26.19H0Z" transform="translate(0.001 0.989)" fill="none"/></clipPath><clipPath id="u"><path d="M0,0H378V28.205H0Z" transform="translate(0.001 0.988)" fill="none"/></clipPath><clipPath id="v"><path d="M0,0H378V20.146H0Z" transform="translate(0.001 0.989)" fill="none"/></clipPath><clipPath id="w"><path d="M0,0H378V2.015H0Z" transform="translate(0.001 0.485)" fill="none"/></clipPath><clipPath id="x"><path d="M0,0H378V17.124H0Z" transform="translate(0.001 0.485)" fill="none"/></clipPath><clipPath id="y"><path d="M0,0H378V28.2H0Z" transform="translate(0.001 0.989)" fill="none"/></clipPath><clipPath id="z"><path d="M0,0H378V18.132H0Z" transform="translate(0.001 0.485)" fill="none"/></clipPath><clipPath id="aa"><path d="M0,0H378V1.007H0Z" transform="translate(0.001 0.486)" fill="none"/></clipPath><clipPath id="ac"><path d="M0,0H378V5.037H0Z" transform="translate(0.001 0.485)" fill="none"/></clipPath><clipPath id="ad"><path d="M0,0H378V4.029H0Z" transform="translate(0.001 0.989)" fill="none"/></clipPath><clipPath id="ah"><path d="M0,0H378V963.993H0Z" transform="translate(0.001 0.958)" fill="none"/></clipPath><clipPath id="ai"><path d="M0,0H23.087V963.993H0Z" transform="translate(0.097 0.455)" fill="none"/></clipPath><clipPath id="aj"><path d="M0,0H19.753V963.993H0Z" transform="translate(0.001 0.958)" fill="none"/></clipPath><clipPath id="ak"><path d="M0,0H378V15.11H0Z" transform="translate(0.001 0.455)" fill="none"/></clipPath><clipPath id="al"><path d="M0,0H378V14.1H0Z" transform="translate(0.001 0.958)" fill="none"/></clipPath><clipPath id="am"><path d="M0,0H378V3.022H0Z" transform="translate(0.001 0.455)" fill="none"/></clipPath><clipPath id="an"><path d="M0,0H378V19.14H0Z" transform="translate(0.001 0.454)" fill="none"/></clipPath><clipPath id="ao"><path d="M0,0H378V6.044H0Z" transform="translate(0.001 0.958)" fill="none"/></clipPath><clipPath id="ap"><path d="M0,0H378V1.007H0Z" transform="translate(0.001 0.455)" fill="none"/></clipPath><clipPath id="aq"><path d="M0,0H378V4.029H0Z" transform="translate(0.001 0.455)" fill="none"/></clipPath><clipPath id="ar"><path d="M0,0H378V10.073H0Z" transform="translate(0.001 0.958)" fill="none"/></clipPath><clipPath id="as"><path d="M0,0H378V27.2H0Z" transform="translate(0.001 0.958)" fill="none"/></clipPath><clipPath id="at"><path d="M0,0H378V11.081H0Z" transform="translate(0.001 0.958)" fill="none"/></clipPath><clipPath id="au"><path d="M0,0H378V15.109H0Z" transform="translate(0.001 0.455)" fill="none"/></clipPath><clipPath id="av"><path d="M0,0H378V7.052H0Z" transform="translate(0.001 0.455)" fill="none"/></clipPath><clipPath id="aw"><path d="M0,0H378V17.124H0Z" transform="translate(0.001 0.455)" fill="none"/></clipPath><clipPath id="ax"><path d="M0,0H378V28.205H0Z" transform="translate(0.001 0.958)" fill="none"/></clipPath><clipPath id="ay"><path d="M0,0H378V16.117H0Z" transform="translate(0.001 0.455)" fill="none"/></clipPath><clipPath id="az"><path d="M0,0H378V23.168H0Z" transform="translate(0.001 0.958)" fill="none"/></clipPath><clipPath id="ba"><path d="M0,0H378V26.19H0Z" transform="translate(0.001 0.958)" fill="none"/></clipPath><clipPath id="bc"><path d="M0,0H378V20.146H0Z" transform="translate(0.001 0.958)" fill="none"/></clipPath><clipPath id="bd"><path d="M0,0H378V2.014H0Z" transform="translate(0.001 0.455)" fill="none"/></clipPath><clipPath id="bf"><path d="M0,0H378V28.2H0Z" transform="translate(0.001 0.958)" fill="none"/></clipPath><clipPath id="bg"><path d="M0,0H378V18.132H0Z" transform="translate(0.001 0.455)" fill="none"/></clipPath><clipPath id="bh"><path d="M0,0H378V1.007H0Z" transform="translate(0.001 0.454)" fill="none"/></clipPath><clipPath id="bj"><path d="M0,0H378V5.036H0Z" transform="translate(0.001 0.455)" fill="none"/></clipPath><clipPath id="bk"><path d="M0,0H378V4.03H0Z" transform="translate(0.001 0.958)" fill="none"/></clipPath><clipPath id="bo"><path d="M0,0H378V963.993H0Z" transform="translate(0.001 0.888)" fill="none"/></clipPath><clipPath id="bp"><path d="M0,0H23.087V963.993H0Z" transform="translate(0.097 0.384)" fill="none"/></clipPath><clipPath id="bq"><path d="M0,0H19.753V963.993H0Z" transform="translate(0.001 0.888)" fill="none"/></clipPath><clipPath id="br"><path d="M0,0H378V15.109H0Z" transform="translate(0.001 0.385)" fill="none"/></clipPath><clipPath id="bs"><path d="M0,0H378V14.1H0Z" transform="translate(0.001 0.888)" fill="none"/></clipPath><clipPath id="bt"><path d="M0,0H378V3.022H0Z" transform="translate(0.001 0.384)" fill="none"/></clipPath><clipPath id="bu"><path d="M0,0H378V19.139H0Z" transform="translate(0.001 0.384)" fill="none"/></clipPath><clipPath id="bv"><path d="M0,0H378V6.044H0Z" transform="translate(0.001 0.888)" fill="none"/></clipPath><clipPath id="bw"><path d="M0,0H378V1.007H0Z" transform="translate(0.001 0.384)" fill="none"/></clipPath><clipPath id="bx"><path d="M0,0H378V4.03H0Z" transform="translate(0.001 0.384)" fill="none"/></clipPath><clipPath id="by"><path d="M0,0H378V10.073H0Z" transform="translate(0.001 0.888)" fill="none"/></clipPath><clipPath id="bz"><path d="M0,0H378V27.2H0Z" transform="translate(0.001 0.888)" fill="none"/></clipPath><clipPath id="ca"><path d="M0,0H378V11.08H0Z" transform="translate(0.001 0.888)" fill="none"/></clipPath><clipPath id="cb"><path d="M0,0H378V15.109H0Z" transform="translate(0.001 0.384)" fill="none"/></clipPath><clipPath id="cc"><path d="M0,0H378V7.051H0Z" transform="translate(0.001 0.384)" fill="none"/></clipPath><clipPath id="cd"><path d="M0,0H378V17.125H0Z" transform="translate(0.001 0.384)" fill="none"/></clipPath><clipPath id="ce"><path d="M0,0H378V28.205H0Z" transform="translate(0.001 0.888)" fill="none"/></clipPath><clipPath id="cf"><path d="M0,0H378V16.118H0Z" transform="translate(0.001 0.384)" fill="none"/></clipPath><clipPath id="cg"><path d="M0,0H378V23.168H0Z" transform="translate(0.001 0.888)" fill="none"/></clipPath><clipPath id="ch"><path d="M0,0H378V26.189H0Z" transform="translate(0.001 0.888)" fill="none"/></clipPath><clipPath id="ci"><path d="M0,0H378V28.205H0Z" transform="translate(0.001 0.887)" fill="none"/></clipPath><clipPath id="cj"><path d="M0,0H378V20.146H0Z" transform="translate(0.001 0.888)" fill="none"/></clipPath><clipPath id="ck"><path d="M0,0H378V2.015H0Z" transform="translate(0.001 0.384)" fill="none"/></clipPath><clipPath id="cl"><path d="M0,0H378V17.124H0Z" transform="translate(0.001 0.384)" fill="none"/></clipPath><clipPath id="cm"><path d="M0,0H378V28.2H0Z" transform="translate(0.001 0.888)" fill="none"/></clipPath><clipPath id="cn"><path d="M0,0H378V18.132H0Z" transform="translate(0.001 0.384)" fill="none"/></clipPath><clipPath id="cq"><path d="M0,0H378V5.037H0Z" transform="translate(0.001 0.384)" fill="none"/></clipPath><clipPath id="cr"><path d="M0,0H378V4.029H0Z" transform="translate(0.001 0.888)" fill="none"/></clipPath><clipPath id="cv"><path d="M0,0H378V963.993H0Z" transform="translate(0.001 0.857)" fill="none"/></clipPath><clipPath id="cw"><path d="M0,0H23.087V963.993H0Z" transform="translate(0.097 0.353)" fill="none"/></clipPath><clipPath id="cx"><path d="M0,0H19.753V963.993H0Z" transform="translate(0.001 0.857)" fill="none"/></clipPath><clipPath id="cy"><path d="M0,0H378V15.11H0Z" transform="translate(0.001 0.353)" fill="none"/></clipPath><clipPath id="cz"><path d="M0,0H378V14.1H0Z" transform="translate(0.001 0.858)" fill="none"/></clipPath><clipPath id="da"><path d="M0,0H378V3.022H0Z" transform="translate(0.001 0.353)" fill="none"/></clipPath><clipPath id="db"><path d="M0,0H378V19.139H0Z" transform="translate(0.001 0.354)" fill="none"/></clipPath><clipPath id="dc"><path d="M0,0H378V6.044H0Z" transform="translate(0.001 0.857)" fill="none"/></clipPath><clipPath id="dd"><path d="M0,0H378V1.007H0Z" transform="translate(0.001 0.353)" fill="none"/></clipPath><clipPath id="de"><path d="M0,0H378V4.03H0Z" transform="translate(0.001 0.353)" fill="none"/></clipPath><clipPath id="df"><path d="M0,0H378V10.073H0Z" transform="translate(0.001 0.857)" fill="none"/></clipPath><clipPath id="dg"><path d="M0,0H378V27.2H0Z" transform="translate(0.001 0.857)" fill="none"/></clipPath><clipPath id="dh"><path d="M0,0H378V11.08H0Z" transform="translate(0.001 0.857)" fill="none"/></clipPath><clipPath id="di"><path d="M0,0H378V15.109H0Z" transform="translate(0.001 0.354)" fill="none"/></clipPath><clipPath id="dj"><path d="M0,0H378V7.052H0Z" transform="translate(0.001 0.353)" fill="none"/></clipPath><clipPath id="dk"><path d="M0,0H378V17.124H0Z" transform="translate(0.001 0.354)" fill="none"/></clipPath><clipPath id="dl"><path d="M0,0H378V28.205H0Z" transform="translate(0.001 0.857)" fill="none"/></clipPath><clipPath id="dm"><path d="M0,0H378V16.118H0Z" transform="translate(0.001 0.353)" fill="none"/></clipPath><clipPath id="dn"><path d="M0,0H378V23.169H0Z" transform="translate(0.001 0.857)" fill="none"/></clipPath><clipPath id="do"><path d="M0,0H378V26.19H0Z" transform="translate(0.001 0.857)" fill="none"/></clipPath><clipPath id="dq"><path d="M0,0H378V20.146H0Z" transform="translate(0.001 0.857)" fill="none"/></clipPath><clipPath id="dr"><path d="M0,0H378V2.015H0Z" transform="translate(0.001 0.353)" fill="none"/></clipPath><clipPath id="dt"><path d="M0,0H378V28.2H0Z" transform="translate(0.001 0.857)" fill="none"/></clipPath><clipPath id="du"><path d="M0,0H378V18.132H0Z" transform="translate(0.001 0.353)" fill="none"/></clipPath><clipPath id="dv"><path d="M0,0H378V1.007H0Z" transform="translate(0.001 0.354)" fill="none"/></clipPath><clipPath id="dx"><path d="M0,0H378V5.037H0Z" transform="translate(0.001 0.353)" fill="none"/></clipPath><clipPath id="dy"><path d="M0,0H378V4.029H0Z" transform="translate(0.001 0.857)" fill="none"/></clipPath><clipPath id="dz"><path d="M0,0H378V6.044H0Z" transform="translate(0.001 0.858)" fill="none"/></clipPath></defs><g transform="translate(-0.001 -0.455)" opacity="0.842"><g transform="translate(0 964)"><path d="M0,0H378V963.993H0Z" transform="translate(0.001 0.989)" fill="none"/><g clip-path="url(#a)"><path d="M.551,0V414.414q-.02,11.195-.025,22.451c-.575,22.318-.575,45.285-.478,67.781.176,7.525.443,14.989.5,22.479V963.993H482.894V750.052c.213-2.954.616-5.7,1.043-8.536,10.168-27.042,8.4-56.193-.184-83.463-.418-3.113-.709-6.314-.859-9.705V489.185c-.281-49.436,6.791-98.9,7.676-148.373.884-39.751-6.188-78.618-7.2-118.3-.139-6.637-.246-13.153-.481-20.858V0Z" transform="translate(-40.727 0.989)" fill="none" stroke="#cec7ac" stroke-miterlimit="10" stroke-width="0.3"/></g><g transform="translate(354.816)"><path d="M0,0H23.087V963.993H0Z" transform="translate(0.097 0.485)" fill="none"/><g clip-path="url(#b)"><path d="M26.886,0V226.013a93.7,93.7,0,0,1,3.279,21.5c1.026,26.162,13.355,49.128,20.4,74.746,6.164,23.852-4.4,45.935-12.33,68.019a168.783,168.783,0,0,0-8.566,37.937c-.73,7.109-1.4,14.418-2.785,22.732V602.295c-.1,18.544-10.668,34.443-25.64,45.044a5.434,5.434,0,0,0-.881,5.3c7.928,14.134,18.5,28.267,17.425,45.459.112,4.306.336,8.632.486,12.7a180.074,180.074,0,0,0,8.454,48.94c.071,3.065.11,6.138.156,9.173V963.993" transform="translate(0.097 0.485)" fill="none" stroke="#cec7ac" stroke-miterlimit="10" stroke-width="0.3"/></g></g><path d="M24.265,0V100.255q0,5.142.023,10.489c.847,13.645-.033,26.9-.017,39.881q-.009,3.01-.006,6.067v99.6c-.891,7.664-.01,15.614,1.751,23.565,12.327,50.35-.881,98.052-1.751,147.79v42.882c0,4.36-.04,8.751-.253,13.232-5.92,39.019,6.406,79.654-5.92,118.523C13.69,616.421-3.039,627.906.483,642.923c5.282,21.2,21.131,38.867,22.22,61.94a115.863,115.863,0,0,0,1.276,12.444c.106,2.926.227,5.815.285,8.708V963.993" transform="translate(327.194 0.989)" fill="none" stroke="#cec7ac" stroke-miterlimit="10" stroke-width="0.3"/><path d="M5.514,0V80.568c.085,4.07-.827,8.487.085,12.02,9.115,25.618,8.205,51.235-.019,76.742-.055,1.9-.066,3.965-.066,6.086V446.108c0,3.364-.045,6.886-.045,10.246-3.517,61.129-9.9,122.083-.781,183.917,3.646,23.851,1.822,46.819.827,70.5V963.993" transform="translate(315.602 0.485)" fill="none" stroke="#cec7ac" stroke-miterlimit="10" stroke-width="0.3"/><path d="M14.192,0V80.568c0,3.132-.009,6.323-.081,9.523-7.794,26.347-8.689,52.848.081,79v284.23c3.752,48.262,1.069,96.849,4.645,146.315.9,14.133,12.522,26.5,14.312,38.869,1.788,20.317-17.887,37.984-18.265,59.8-.238,4.976-.691,10.478-.691,15.17v79.766c0,7.247-.717,15.133-.91,22.068C12.578,836.378.057,854.929.057,876.128-.838,893.8,9,909.7,12.383,927.306a107.693,107.693,0,0,1,1.809,20.582v16.1" transform="translate(276.794 0.989)" fill="none" stroke="#cec7ac" stroke-miterlimit="10" stroke-width="0.3"/><path d="M16.128,0V776.534c-.861,6.613-1.041,11.268-1.235,15.832.6,27.229-12.954,52.846-14.76,80.23-1.806,29.15,15.36,56.535,15.994,86.086-.1,3.206,0,5.31,0,5.31" transform="translate(245.042 0.485)" fill="none" stroke="#cec7ac" stroke-miterlimit="10" stroke-width="0.3"/><path d="M.375,0V763.643c-.016,6.024-.021,11.142-.028,16.171C.761,840.8.761,902.633.375,963.993" transform="translate(230.426 0.989)" fill="none" stroke="#cec7ac" stroke-miterlimit="10" stroke-width="0.3"/><path d="M0,0V436.868q0,11.252,0,22.543T.022,482C.029,489.529,0,497.059,0,504.582V785.136a122.54,122.54,0,0,1,1.773,17.25c.407,25.157,13.483,48.125,14.355,71.976,0,28.268-14.819,54.768-15.985,83.8,0,3.557-.143,5.834-.143,5.834" transform="translate(200.69 0.485)" fill="none" stroke="#cec7ac" stroke-miterlimit="10" stroke-width="0.3"/><path d="M7.87,0V11.655a120.589,120.589,0,0,1-.789,14.967C-.647,54.6-3.366,82.871,5.7,112.023A30.689,30.689,0,0,1,7.87,126.635V392.092c9.612,60.024,13.239,120.092,0,179.808v219.75c.042,4.47.083,8.878.165,13.244.383,4.1-.524,8.516,1.288,12.934,15.41,41.517,10.878,80.384-1.1,121.972,0,7.634-.351,14-.351,18.038v6.155" transform="translate(162.89 0.989)" fill="none" stroke="#cec7ac" stroke-miterlimit="10" stroke-width="0.3"/><path d="M1.015,0V2.98c0,1.964-.035,5.772-.035,9.515C.759,48.42-.986,85.52.787,121.8c.05,6.087.108,13.006.229,21.72v226.43c0,7.347.175,14.448.818,21C29.572,451.232,27.826,516.6,3.38,578.437c-1.747,5.3-1.747,10.6-2.2,15.81-.139,7.18-.16,14.457-.16,21.723V963.993" transform="translate(140.209 0.485)" fill="none" stroke="#cec7ac" stroke-miterlimit="10" stroke-width="0.3"/><path d="M0,0V11.655C7.776,49.3,11.307,86.4.937,124.761c0,5.3-.459,11.913-.937,18.758v226.43a102.506,102.506,0,0,0,2.3,16.164C33.373,449.466,36.9,521.018,4.245,585.5c-5.3,9.716-2.649,20.318-4.007,30.9-.116,7.064-.175,14.18-.238,21.23V963.993" transform="translate(110.474 0.989)" fill="none" stroke="#cec7ac" stroke-miterlimit="10" stroke-width="0.3"/><path d="M0,0V40.974c.168,3.788.233,7.763.307,11.936C1.891,66.971-.087,81.988.1,95.928.069,101.306,0,106.9,0,112.64V326.363c.006,7.053.012,14.159.023,21.2C4.86,437.1,5.849,527.2.033,616.624c-.015,6.987-.023,14.046-.033,21V963.993" transform="translate(80.738 0.485)" fill="none" stroke="#cec7ac" stroke-miterlimit="10" stroke-width="0.3"/><path d="M26.208,0V369.949a105.773,105.773,0,0,1-2.116,15.394c-27.935,59.707-34.124,128.609-4.945,190.444,6.19,13.25,7.074,26.5,6.842,40.677.1,7.04.158,14.14.219,21.165V963.993" transform="translate(24.29 0.485)" fill="none" stroke="#cec7ac" stroke-miterlimit="10" stroke-width="0.3"/><path d="M0,0H19.753V963.993H0Z" transform="translate(0.001 0.989)" fill="none"/><g clip-path="url(#c)"><path d="M23.185,0V348.023c0,7.268,0,14.57-.1,21.776.207,5.466.207,11.648-1.538,16.065C-2.876,447.7-10.726,514.835,20.355,575.842a106.69,106.69,0,0,1,2.829,18.2V963.993" transform="translate(-3.431 0.989)" fill="none" stroke="#cec7ac" stroke-miterlimit="10" stroke-width="0.3"/></g><g transform="translate(0 917.657)"><path d="M0,0H378V15.11H0Z" transform="translate(0.001 0.485)" fill="none"/><g clip-path="url(#d)"><path d="M0,15.11H195.976c6.064-1.026,11.483-1.506,16.784-2.036,21.531-2.468,40.074-15.3,62.15-12.736,22.959,2.568,44.152,13.691,68.214,14.528,4.739.187,9.319.244,13.78.244H481.824" transform="translate(-40.222 0.485)" fill="none" stroke="#cec7ac" stroke-miterlimit="10" stroke-width="0.3"/></g></g><g transform="translate(0 887.437)"><path d="M0,0H378V14.1H0Z" transform="translate(0.001 0.99)" fill="none"/><g clip-path="url(#e)"><path d="M0,14.1H181.241c28.324-.907,53.933-7.754,82.19-13.747,7.064-.856,13.245,0,20.31.855,24.725,5.137,48.566,11.985,73.165,12.892H481.824" transform="translate(-39.718 0.99)" fill="none" stroke="#cec7ac" stroke-miterlimit="10" stroke-width="0.3"/></g></g><g transform="translate(0 870.313)"><path d="M0,0H378V3.022H0Z" transform="translate(0.001 0.485)" fill="none"/><g clip-path="url(#f)"><path d="M0,0H181.241c56.582,2.946,113.98,4.821,170.494.378C356.418.341,361.387.294,370.073,0H481.824" transform="translate(-40.222 0.485)" fill="none" stroke="#cec7ac" stroke-miterlimit="10" stroke-width="0.3"/></g></g><g transform="translate(0 839.087)"><path d="M0,0H378V19.139H0Z" transform="translate(0.001 0.486)" fill="none"/><g clip-path="url(#g)"><path d="M0,.02H181.241c29.207-.593,54.816,12.094,83.956,18.439a37.041,37.041,0,0,0,14.129,0C305.817,12.114,329.659.333,356.907.02H481.824" transform="translate(-40.222 0.486)" fill="none" stroke="#cec7ac" stroke-miterlimit="10" stroke-width="0.3"/></g></g><g transform="translate(0 807.86)"><path d="M0,0H378V6.044H0Z" transform="translate(0.001 0.989)" fill="none"/><g clip-path="url(#h)"><path d="M0,0H195.976c4.961.057,9.941.1,14.942.183,40.15,6.957,79.005,8.629,118.4-.005,4.724-.08,9.389-.124,14-.178h138.5" transform="translate(-39.718 0.989)" fill="none" stroke="#cec7ac" stroke-miterlimit="10" stroke-width="0.3"/></g></g><g transform="translate(0 776.634)"><path d="M0,0H378V1.007H0Z" transform="translate(0.001 0.485)" fill="none"/><g clip-path="url(#i)"><path d="M0,.5H481.824" transform="translate(-40.222 0.485)" fill="none" stroke="#cec7ac" stroke-miterlimit="10" stroke-width="0.3"/></g></g><g transform="translate(0 746.414)"><path d="M0,0H378V4.03H0Z" transform="translate(0.001 0.485)" fill="none"/><g clip-path="url(#j)"><path d="M0,0H407.032a57.721,57.721,0,0,1,7.918.651A169.84,169.84,0,0,0,482.832.556" transform="translate(-40.222 0.485)" fill="none" stroke="#cec7ac" stroke-miterlimit="10" stroke-width="0.3"/></g></g><g transform="translate(0 715.188)"><path d="M0,0H378V10.073H0Z" transform="translate(0.001 0.989)" fill="none"/><g clip-path="url(#k)"><path d="M0,0H389.541A62.781,62.781,0,0,1,402.19,2.006c27.936,9.228,59.775,11.79,87.7,1.013" transform="translate(-40.726 0.989)" fill="none" stroke="#cec7ac" stroke-miterlimit="10" stroke-width="0.3"/></g></g><g transform="translate(0 656.764)"><path d="M0,0H378V27.2H0Z" transform="translate(0.001 0.989)" fill="none"/><g clip-path="url(#l)"><path d="M0,27.158H298.7c3.245,0,6.561-.078,9.689,0C331.526,28.336,344.775,4.912,362.442.573s36.216,17.352,58.428,17.054c4.912.171,9.093-.12,13.476-.172,18.475-2.146,37.341-.538,54.535,6.455" transform="translate(-39.718 0.989)" fill="none" stroke="#cec7ac" stroke-miterlimit="10" stroke-width="0.3"/></g></g><g transform="translate(0 641.654)"><path d="M0,0H378V11.08H0Z" transform="translate(0.001 0.989)" fill="none"/><g clip-path="url(#m)"><path d="M0,11.08H287.3c3.113,0,6.259-.016,9.7-.169C319.57,9.768,339.913-2.993,362.909.653c22.111,3.646,43.338,8.2,65.246,7.318,2.863-.083,5.7-.158,10.689-.032,14.664-.837,29.237-.426,43.988,2.8" transform="translate(-40.726 0.989)" fill="none" stroke="#cec7ac" stroke-miterlimit="10" stroke-width="0.3"/></g></g><g transform="translate(0 621.508)"><path d="M0,0H378V15.109H0Z" transform="translate(0.001 0.486)" fill="none"/><g clip-path="url(#n)"><path d="M0,.515H274.691c3.731,0,7.529-.009,11.712-.065,27.362-2.733,51.2,7.641,77.7,13.692,23.841,5.188,47.683-12.1,73.259-13.627h44.465" transform="translate(-40.222 0.486)" fill="none" stroke="#cec7ac" stroke-miterlimit="10" stroke-width="0.3"/></g></g><g transform="translate(0 590.282)"><path d="M0,0H378V7.052H0Z" transform="translate(0.001 0.485)" fill="none"/><g clip-path="url(#o)"><path d="M0,.389H35.69c7.436,0,15.853.015,24.866.557,46.576,6.568,93.378,2.1,140.369-.557h72.8c3.5,0,7.393-.163,10.545-.03,26.847-1.791,52.456,3.577,78.948,6.26C379.994,9.3,396.771-1.433,414.728.389h67.1" transform="translate(-40.222 0.485)" fill="none" stroke="#cec7ac" stroke-miterlimit="10" stroke-width="0.3"/></g></g><g transform="translate(0 560.063)"><path d="M0,0H378V17.124H0Z" transform="translate(0.001 0.486)" fill="none"/><g clip-path="url(#p)"><path d="M0,.2H16.523c59.7,14.878,121.515,27.876,182.447,2.745A48.878,48.878,0,0,1,220.96.3c6.578-.093,13.26-.1,19.952-.1H481.824" transform="translate(-40.222 0.486)" fill="none" stroke="#cec7ac" stroke-miterlimit="10" stroke-width="0.3"/></g></g><g transform="translate(0 527.829)"><path d="M0,0H378V28.205H0Z" transform="translate(0.001 0.989)" fill="none"/><g clip-path="url(#q)"><path d="M0,.168A25.366,25.366,0,0,1,13.529,2.287C77.109,33.59,148.636,38.956,213.1,4.971,221.928.5,231.641.5,241.332.454c6.51-.133,13.1-.2,19.635-.286H481.824" transform="translate(-39.718 0.989)" fill="none" stroke="#cec7ac" stroke-miterlimit="10" stroke-width="0.3"/></g></g><g transform="translate(0 497.61)"><path d="M0,0H378V16.118H0Z" transform="translate(0.001 0.485)" fill="none"/><g clip-path="url(#r)"><path d="M0,.09C5.554.522,11.736.522,17.036,1.432,87.7,23.3,158.369,18.743,227.671.9,231.84.5,236.326.2,241.842,0h240.99" transform="translate(-41.23 0.485)" fill="none" stroke="#cec7ac" stroke-miterlimit="10" stroke-width="0.3"/></g></g><g transform="translate(0 443.215)"><path d="M0,0H378V23.169H0Z" transform="translate(0.001 0.988)" fill="none"/><g clip-path="url(#s)"><path d="M0,23.064c50.421-9.708,98.14-30.691,152.931-20.2,30.928,5.245,58.323,19.235,89.6,20.1,6.4.087,12.9.139,19.283.208H482.832" transform="translate(-40.726 0.988)" fill="none" stroke="#cec7ac" stroke-miterlimit="10" stroke-width="0.3"/></g></g><g transform="translate(0 408.967)"><path d="M0,0H378V26.19H0Z" transform="translate(0.001 0.989)" fill="none"/><g clip-path="url(#t)"><path d="M0,26.19A114.141,114.141,0,0,0,14.078,24.9C78.027-7.025,149.586-8.771,214.963,22.678c7.951,3.492,17.668,2.619,26.372,3.254,6.548.125,13.165.19,19.752.258H387.88c9.245,0,18.045-.027,26.324-.161,24.271-.731,46.357-8.592,69.636-12.969" transform="translate(-39.718 0.989)" fill="none" stroke="#cec7ac" stroke-miterlimit="10" stroke-width="0.3"/></g></g><g transform="translate(0 375.725)"><path d="M0,0H378V28.205H0Z" transform="translate(0.001 0.988)" fill="none"/><g clip-path="url(#u)"><path d="M0,27.93H16.54c30.594-.727,58-13.148,88.936-15.809,33.591-2.661,64.529,8.871,96.193,15.248,6.181.47,12.738.561,19.417.561H367.859c42.586,2.822,80.6-16.7,120.013-27.93" transform="translate(-39.718 0.988)" fill="none" stroke="#cec7ac" stroke-miterlimit="10" stroke-width="0.3"/></g></g><g transform="translate(0 352.557)"><path d="M0,0H378V20.146H0Z" transform="translate(0.001 0.989)" fill="none"/><g clip-path="url(#v)"><path d="M0,20.146H60.845C94.831,17,128.409,17.867,162.13,19.8c6.309.2,12.737.265,19.23.346H352.652c7.933-.721,13.614-.868,19.153-1.025C412.05,19.609,450.931,7.413,489.888,0" transform="translate(-39.718 0.989)" fill="none" stroke="#cec7ac" stroke-miterlimit="10" stroke-width="0.3"/></g></g><g transform="translate(0 340.47)"><path d="M0,0H378V2.015H0Z" transform="translate(0.001 0.485)" fill="none"/><g clip-path="url(#w)"><path d="M0,1.932H357.349C401.683,2.394,446.775.815,490.9,0" transform="translate(-40.222 0.485)" fill="none" stroke="#cec7ac" stroke-miterlimit="10" stroke-width="0.3"/></g></g><g transform="translate(0 311.258)"><path d="M0,0H378V17.124H0Z" transform="translate(0.001 0.485)" fill="none"/><g clip-path="url(#x)"><path d="M0,0H356.95c45.168-.188,88.443,9.583,132.938,17.121" transform="translate(-40.222 0.485)" fill="none" stroke="#cec7ac" stroke-miterlimit="10" stroke-width="0.3"/></g></g><g transform="translate(0 279.024)"><path d="M0,0H378V28.2H0Z" transform="translate(0.001 0.989)" fill="none"/><g clip-path="url(#y)"><path d="M0,0H374.265c7.238.909,13.427,1.328,19.4,1.814,33.025,2.655,63.041,17.879,94.21,26.39" transform="translate(-39.718 0.989)" fill="none" stroke="#cec7ac" stroke-miterlimit="10" stroke-width="0.3"/></g></g><g transform="translate(0 248.805)"><path d="M0,0H378V18.132H0Z" transform="translate(0.001 0.485)" fill="none"/><g clip-path="url(#z)"><path d="M0,0H391.277C403.3,1.338,414,2.051,423.948,3.309c20.886,2.2,40.329,10.206,60.9,14.823" transform="translate(-40.222 0.485)" fill="none" stroke="#cec7ac" stroke-miterlimit="10" stroke-width="0.3"/></g></g><g transform="translate(0 217.578)"><path d="M0,0H378V1.007H0Z" transform="translate(0.001 0.486)" fill="none"/><g clip-path="url(#aa)"><path d="M0,.365H446.107c7.447.04,13.923.165,19.2.165,10.563,0,16.515.113,16.515.113" transform="translate(-40.222 0.486)" fill="none" stroke="#cec7ac" stroke-miterlimit="10" stroke-width="0.3"/></g></g><g transform="translate(0 186.352)"><path d="M0,0H378V1.007H0Z" transform="translate(0.001 0.485)" fill="none"/><g clip-path="url(#i)"><path d="M0,.5H481.824" transform="translate(-40.222 0.485)" fill="none" stroke="#cec7ac" stroke-miterlimit="10" stroke-width="0.3"/></g></g><g transform="translate(0 155.125)"><path d="M0,0H378V5.037H0Z" transform="translate(0.001 0.485)" fill="none"/><g clip-path="url(#ac)"><path d="M0,0H310.712c2.518,0,5.025,0,7.444.065,22.983,7.068,46.827,6.154,70.064.063,2.089-.055,4.165-.088,6.2-.129h87.4" transform="translate(-40.222 0.485)" fill="none" stroke="#cec7ac" stroke-miterlimit="10" stroke-width="0.3"/></g></g><g transform="translate(0 119.87)"><path d="M0,0H378V4.029H0Z" transform="translate(0.001 0.989)" fill="none"/><g clip-path="url(#ad)"><path d="M0,4.029H132.9c26.33-.891,53.7-3.576,79.786,0h82.789c2.521-.008,5.032-.018,7.5-.035a298.771,298.771,0,0,1,97.587.035h81.261" transform="translate(-39.718 0.989)" fill="none" stroke="#cec7ac" stroke-miterlimit="10" stroke-width="0.3"/></g></g><g transform="translate(0 86.628)"><path d="M0,0H378V6.044H0Z" transform="translate(0.001 0.989)" fill="none"/><g clip-path="url(#h)"><path d="M0,6.035H103.415c6.788-.4,13.572-.784,19.1-.784,35.83-6.5,71.152-7.331,107.354-.426,6.907.277,14.09.511,22.818,1.21h65.54c16.727.17,33.5-2.315,50.275-.357,2.212.18,4.376.357,6.593.357H481.824" transform="translate(-39.718 0.989)" fill="none" stroke="#cec7ac" stroke-miterlimit="10" stroke-width="0.3"/></g></g><g transform="translate(0 62.453)"><path d="M0,0H378V3.022H0Z" transform="translate(0.001 0.485)" fill="none"/><g clip-path="url(#f)"><path d="M0,0H111.751C154.818,3.077,197.2,4.882,240.912,0H481.824" transform="translate(-40.222 0.485)" fill="none" stroke="#cec7ac" stroke-miterlimit="10" stroke-width="0.3"/></g></g><g transform="translate(0 31.227)"><path d="M0,0H378V6.044H0Z" transform="translate(0.001 0.989)" fill="none"/><g clip-path="url(#h)"><path d="M0,0H111.751c6.469,0,13.666.443,20.506.69,27.859,6.119,57,7.907,85.324.472A201.819,201.819,0,0,1,240.912,0H481.824" transform="translate(-39.718 0.989)" fill="none" stroke="#cec7ac" stroke-miterlimit="10" stroke-width="0.3"/></g></g></g><path d="M0,0H378V963.993H0Z" transform="translate(0.001 0.958)" fill="none"/><g clip-path="url(#ah)"><path d="M.551,0V414.414q-.02,11.193-.025,22.45c-.575,22.319-.575,45.286-.478,67.782.176,7.525.443,14.989.5,22.479V963.993H482.894V750.051c.213-2.953.616-5.7,1.043-8.536,10.168-27.041,8.4-56.192-.184-83.463-.418-3.112-.709-6.313-.859-9.705V489.185c-.281-49.437,6.791-98.9,7.676-148.373.884-39.751-6.188-78.619-7.2-118.3-.139-6.637-.246-13.153-.481-20.858V0Z" transform="translate(-40.727 0.958)" fill="none" stroke="#cec7ac" stroke-miterlimit="10" stroke-width="0.3"/></g><g transform="translate(354.816)"><path d="M0,0H23.087V963.993H0Z" transform="translate(0.097 0.455)" fill="none"/><g clip-path="url(#ai)"><path d="M26.886,0V226.013a93.7,93.7,0,0,1,3.279,21.5c1.026,26.161,13.355,49.128,20.4,74.746,6.164,23.852-4.4,45.935-12.33,68.019a168.771,168.771,0,0,0-8.566,37.937c-.73,7.109-1.4,14.417-2.785,22.732V602.295c-.1,18.542-10.668,34.443-25.64,45.044a5.434,5.434,0,0,0-.881,5.3c7.928,14.134,18.5,28.267,17.425,45.459.112,4.306.336,8.632.486,12.7a180.081,180.081,0,0,0,8.454,48.94c.071,3.065.11,6.138.156,9.173V963.993" transform="translate(0.097 0.455)" fill="none" stroke="#cec7ac" stroke-miterlimit="10" stroke-width="0.3"/></g></g><path d="M24.265,0V100.255q0,5.142.023,10.489c.847,13.645-.033,26.9-.017,39.881q-.009,3.01-.006,6.067v99.6c-.891,7.665-.01,15.615,1.751,23.566,12.327,50.35-.881,98.052-1.751,147.79v42.882c0,4.36-.04,8.751-.253,13.232-5.92,39.019,6.406,79.654-5.92,118.522C13.69,616.42-3.039,627.9.483,642.922c5.282,21.2,21.131,38.868,22.22,61.941a115.863,115.863,0,0,0,1.276,12.444c.106,2.926.227,5.814.285,8.708V963.993" transform="translate(327.194 0.958)" fill="none" stroke="#cec7ac" stroke-miterlimit="10" stroke-width="0.3"/><path d="M5.514,0V80.568c.085,4.07-.827,8.487.085,12.02,9.115,25.617,8.205,51.235-.019,76.742-.055,1.9-.066,3.964-.066,6.086V446.108c0,3.364-.045,6.886-.045,10.246-3.517,61.129-9.9,122.083-.781,183.917,3.646,23.851,1.822,46.818.827,70.5V963.993" transform="translate(315.602 0.455)" fill="none" stroke="#cec7ac" stroke-miterlimit="10" stroke-width="0.3"/><path d="M14.192,0V80.568c0,3.131-.009,6.323-.081,9.522-7.794,26.348-8.689,52.849.081,79V453.32c3.752,48.263,1.069,96.849,4.645,146.316.9,14.133,12.522,26.5,14.312,38.868,1.788,20.318-17.887,37.985-18.265,59.8-.238,4.976-.691,10.477-.691,15.17v79.766c0,7.247-.717,15.133-.91,22.068C12.578,836.378.057,854.929.057,876.128-.838,893.8,9,909.7,12.383,927.3a107.708,107.708,0,0,1,1.809,20.583v16.1" transform="translate(276.794 0.958)" fill="none" stroke="#cec7ac" stroke-miterlimit="10" stroke-width="0.3"/><path d="M16.128,0V776.534c-.861,6.613-1.041,11.267-1.235,15.832.6,27.228-12.954,52.846-14.76,80.23-1.806,29.15,15.36,56.535,15.994,86.086-.1,3.206,0,5.31,0,5.31" transform="translate(245.042 0.455)" fill="none" stroke="#cec7ac" stroke-miterlimit="10" stroke-width="0.3"/><path d="M.375,0V763.643c-.016,6.023-.021,11.141-.028,16.171C.761,840.8.761,902.633.375,963.993" transform="translate(230.426 0.958)" fill="none" stroke="#cec7ac" stroke-miterlimit="10" stroke-width="0.3"/><path d="M0,0V436.868q0,11.252,0,22.543T.022,482C.029,489.529,0,497.059,0,504.582V785.136a122.528,122.528,0,0,1,1.773,17.249c.407,25.157,13.483,48.126,14.355,71.977,0,28.268-14.819,54.768-15.985,83.795,0,3.558-.143,5.835-.143,5.835" transform="translate(200.69 0.455)" fill="none" stroke="#cec7ac" stroke-miterlimit="10" stroke-width="0.3"/><path d="M7.87,0V11.655A120.574,120.574,0,0,1,7.081,26.62C-.647,54.6-3.366,82.871,5.7,112.023A30.689,30.689,0,0,1,7.87,126.635V392.092c9.612,60.024,13.239,120.092,0,179.808v219.75c.042,4.47.083,8.878.165,13.243.383,4.1-.524,8.517,1.288,12.935,15.41,41.517,10.878,80.384-1.1,121.972,0,7.634-.351,14-.351,18.038v6.155" transform="translate(162.89 0.958)" fill="none" stroke="#cec7ac" stroke-miterlimit="10" stroke-width="0.3"/><path d="M1.015,0V2.98C1.015,4.944.98,8.75.98,12.495.759,48.42-.986,85.52.787,121.8c.05,6.086.108,13.006.229,21.719v226.43c0,7.348.175,14.449.818,21C29.572,451.232,27.826,516.6,3.38,578.437c-1.747,5.3-1.747,10.6-2.2,15.81-.139,7.18-.16,14.456-.16,21.723V963.993" transform="translate(140.209 0.455)" fill="none" stroke="#cec7ac" stroke-miterlimit="10" stroke-width="0.3"/><path d="M0,0V11.655C7.776,49.3,11.307,86.4.937,124.761c0,5.3-.459,11.913-.937,18.757v226.43a102.5,102.5,0,0,0,2.3,16.165C33.373,449.466,36.9,521.017,4.245,585.5c-5.3,9.716-2.649,20.317-4.007,30.9-.116,7.063-.175,14.18-.238,21.23V963.993" transform="translate(110.474 0.958)" fill="none" stroke="#cec7ac" stroke-miterlimit="10" stroke-width="0.3"/><path d="M0,0V40.973c.168,3.789.233,7.763.307,11.937C1.891,66.971-.087,81.988.1,95.928.069,101.306,0,106.9,0,112.64V326.363c.006,7.053.012,14.159.023,21.195C4.86,437.1,5.849,527.2.033,616.623.018,623.611.01,630.67,0,637.628V963.993" transform="translate(80.738 0.455)" fill="none" stroke="#cec7ac" stroke-miterlimit="10" stroke-width="0.3"/><path d="M26.208,0V369.948a105.788,105.788,0,0,1-2.116,15.395c-27.935,59.707-34.124,128.609-4.945,190.443,6.19,13.251,7.074,26.5,6.842,40.677.1,7.04.158,14.14.219,21.166V963.993" transform="translate(24.29 0.455)" fill="none" stroke="#cec7ac" stroke-miterlimit="10" stroke-width="0.3"/><path d="M0,0H19.753V963.993H0Z" transform="translate(0.001 0.958)" fill="none"/><g clip-path="url(#aj)"><path d="M23.185,0V348.023c0,7.267,0,14.57-.1,21.776.207,5.466.207,11.648-1.538,16.065C-2.876,447.7-10.726,514.835,20.355,575.842a106.69,106.69,0,0,1,2.829,18.2V963.993" transform="translate(-3.431 0.958)" fill="none" stroke="#cec7ac" stroke-miterlimit="10" stroke-width="0.3"/></g><g transform="translate(0 917.657)"><path d="M0,0H378V15.11H0Z" transform="translate(0.001 0.455)" fill="none"/><g clip-path="url(#ak)"><path d="M0,15.11H195.976c6.064-1.027,11.483-1.507,16.784-2.036,21.531-2.468,40.074-15.3,62.15-12.736,22.959,2.568,44.152,13.691,68.214,14.528,4.739.187,9.319.244,13.78.244H481.824" transform="translate(-40.222 0.455)" fill="none" stroke="#cec7ac" stroke-miterlimit="10" stroke-width="0.3"/></g></g><g transform="translate(0 887.437)"><path d="M0,0H378V14.1H0Z" transform="translate(0.001 0.958)" fill="none"/><g clip-path="url(#al)"><path d="M0,14.1H181.241c28.324-.908,53.933-7.755,82.19-13.748,7.064-.856,13.245,0,20.31.855,24.725,5.137,48.566,11.985,73.165,12.893H481.824" transform="translate(-39.718 0.958)" fill="none" stroke="#cec7ac" stroke-miterlimit="10" stroke-width="0.3"/></g></g><g transform="translate(0 870.313)"><path d="M0,0H378V3.022H0Z" transform="translate(0.001 0.455)" fill="none"/><g clip-path="url(#am)"><path d="M0,0H181.241c56.582,2.946,113.98,4.821,170.494.378C356.418.341,361.387.294,370.073,0H481.824" transform="translate(-40.222 0.455)" fill="none" stroke="#cec7ac" stroke-miterlimit="10" stroke-width="0.3"/></g></g><g transform="translate(0 839.087)"><path d="M0,0H378V19.14H0Z" transform="translate(0.001 0.454)" fill="none"/><g clip-path="url(#an)"><path d="M0,.02H181.241c29.207-.593,54.816,12.095,83.956,18.44a37.041,37.041,0,0,0,14.129,0C305.817,12.115,329.659.333,356.907.02H481.824" transform="translate(-40.222 0.454)" fill="none" stroke="#cec7ac" stroke-miterlimit="10" stroke-width="0.3"/></g></g><g transform="translate(0 807.86)"><path d="M0,0H378V6.044H0Z" transform="translate(0.001 0.958)" fill="none"/><g clip-path="url(#ao)"><path d="M0,0H195.976c4.961.057,9.941.1,14.942.183,40.15,6.957,79.005,8.629,118.4-.005,4.724-.08,9.389-.124,14-.178h138.5" transform="translate(-39.718 0.958)" fill="none" stroke="#cec7ac" stroke-miterlimit="10" stroke-width="0.3"/></g></g><g transform="translate(0 776.634)"><path d="M0,0H378V1.007H0Z" transform="translate(0.001 0.455)" fill="none"/><g clip-path="url(#ap)"><path d="M0,.5H481.824" transform="translate(-40.222 0.455)" fill="none" stroke="#cec7ac" stroke-miterlimit="10" stroke-width="0.3"/></g></g><g transform="translate(0 746.414)"><path d="M0,0H378V4.029H0Z" transform="translate(0.001 0.455)" fill="none"/><g clip-path="url(#aq)"><path d="M0,0H407.032a57.721,57.721,0,0,1,7.918.651,169.821,169.821,0,0,0,67.882-.1" transform="translate(-40.222 0.455)" fill="none" stroke="#cec7ac" stroke-miterlimit="10" stroke-width="0.3"/></g></g><g transform="translate(0 715.188)"><path d="M0,0H378V10.073H0Z" transform="translate(0.001 0.958)" fill="none"/><g clip-path="url(#ar)"><path d="M0,0H389.541A62.781,62.781,0,0,1,402.19,2.006c27.936,9.228,59.775,11.79,87.7,1.013" transform="translate(-40.726 0.958)" fill="none" stroke="#cec7ac" stroke-miterlimit="10" stroke-width="0.3"/></g></g><g transform="translate(0 656.764)"><path d="M0,0H378V27.2H0Z" transform="translate(0.001 0.958)" fill="none"/><g clip-path="url(#as)"><path d="M0,27.158H298.7c3.245,0,6.561-.078,9.689,0C331.526,28.336,344.775,4.912,362.442.573s36.216,17.352,58.428,17.053c4.912.172,9.093-.119,13.476-.171,18.475-2.146,37.341-.538,54.535,6.454" transform="translate(-39.718 0.958)" fill="none" stroke="#cec7ac" stroke-miterlimit="10" stroke-width="0.3"/></g></g><g transform="translate(0 641.654)"><path d="M0,0H378V11.081H0Z" transform="translate(0.001 0.958)" fill="none"/><g clip-path="url(#at)"><path d="M0,11.081H287.3c3.113,0,6.259-.016,9.7-.169C319.57,9.768,339.913-2.993,362.909.653c22.111,3.646,43.338,8.2,65.246,7.317,2.863-.083,5.7-.157,10.689-.031,14.664-.837,29.237-.426,43.988,2.8" transform="translate(-40.726 0.958)" fill="none" stroke="#cec7ac" stroke-miterlimit="10" stroke-width="0.3"/></g></g><g transform="translate(0 621.508)"><path d="M0,0H378V15.109H0Z" transform="translate(0.001 0.455)" fill="none"/><g clip-path="url(#au)"><path d="M0,.515H274.691c3.731,0,7.529-.009,11.712-.065,27.362-2.733,51.2,7.64,77.7,13.692,23.841,5.187,47.683-12.1,73.259-13.627h44.465" transform="translate(-40.222 0.455)" fill="none" stroke="#cec7ac" stroke-miterlimit="10" stroke-width="0.3"/></g></g><g transform="translate(0 590.282)"><path d="M0,0H378V7.052H0Z" transform="translate(0.001 0.455)" fill="none"/><g clip-path="url(#av)"><path d="M0,.388H35.69c7.436,0,15.853.016,24.866.557,46.576,6.569,93.378,2.1,140.369-.557h72.8c3.5,0,7.393-.162,10.545-.029,26.847-1.791,52.456,3.576,78.948,6.26C379.994,9.3,396.771-1.433,414.728.388h67.1" transform="translate(-40.222 0.455)" fill="none" stroke="#cec7ac" stroke-miterlimit="10" stroke-width="0.3"/></g></g><g transform="translate(0 560.063)"><path d="M0,0H378V17.124H0Z" transform="translate(0.001 0.455)" fill="none"/><g clip-path="url(#aw)"><path d="M0,.2H16.523c59.7,14.878,121.515,27.875,182.447,2.745A48.864,48.864,0,0,1,220.96.3c6.578-.094,13.26-.1,19.952-.1H481.824" transform="translate(-40.222 0.455)" fill="none" stroke="#cec7ac" stroke-miterlimit="10" stroke-width="0.3"/></g></g><g transform="translate(0 527.829)"><path d="M0,0H378V28.205H0Z" transform="translate(0.001 0.958)" fill="none"/><g clip-path="url(#ax)"><path d="M0,.168A25.386,25.386,0,0,1,13.529,2.287c63.58,31.3,135.106,36.67,199.568,2.684C221.928.5,231.641.5,241.332.454c6.51-.132,13.1-.2,19.635-.286H481.824" transform="translate(-39.718 0.958)" fill="none" stroke="#cec7ac" stroke-miterlimit="10" stroke-width="0.3"/></g></g><g transform="translate(0 497.61)"><path d="M0,0H378V16.117H0Z" transform="translate(0.001 0.455)" fill="none"/><g clip-path="url(#ay)"><path d="M0,.09C5.554.522,11.736.522,17.036,1.432,87.7,23.3,158.369,18.743,227.671.9,231.84.5,236.326.2,241.842,0h240.99" transform="translate(-41.23 0.455)" fill="none" stroke="#cec7ac" stroke-miterlimit="10" stroke-width="0.3"/></g></g><g transform="translate(0 443.215)"><path d="M0,0H378V23.168H0Z" transform="translate(0.001 0.958)" fill="none"/><g clip-path="url(#az)"><path d="M0,23.063c50.421-9.707,98.14-30.69,152.931-20.2,30.928,5.245,58.323,19.234,89.6,20.1,6.4.087,12.9.139,19.283.206H482.832" transform="translate(-40.726 0.958)" fill="none" stroke="#cec7ac" stroke-miterlimit="10" stroke-width="0.3"/></g></g><g transform="translate(0 408.967)"><path d="M0,0H378V26.19H0Z" transform="translate(0.001 0.958)" fill="none"/><g clip-path="url(#ba)"><path d="M0,26.19A114.141,114.141,0,0,0,14.078,24.9C78.027-7.025,149.586-8.771,214.963,22.677c7.951,3.493,17.668,2.62,26.372,3.255,6.548.125,13.165.19,19.752.258H387.88c9.245,0,18.045-.028,26.324-.161,24.271-.731,46.357-8.592,69.636-12.969" transform="translate(-39.718 0.958)" fill="none" stroke="#cec7ac" stroke-miterlimit="10" stroke-width="0.3"/></g></g><g transform="translate(0 375.725)"><path d="M0,0H378V28.205H0Z" transform="translate(0.001 0.958)" fill="none"/><g clip-path="url(#ax)"><path d="M0,27.93H16.54c30.594-.727,58-13.148,88.936-15.809,33.591-2.662,64.529,8.87,96.193,15.248,6.181.47,12.738.561,19.417.561H367.859c42.586,2.821,80.6-16.7,120.013-27.93" transform="translate(-39.718 0.958)" fill="none" stroke="#cec7ac" stroke-miterlimit="10" stroke-width="0.3"/></g></g><g transform="translate(0 352.557)"><path d="M0,0H378V20.146H0Z" transform="translate(0.001 0.958)" fill="none"/><g clip-path="url(#bc)"><path d="M0,20.146H60.845C94.831,17,128.409,17.867,162.13,19.8c6.309.2,12.737.265,19.23.346H352.652c7.933-.721,13.614-.868,19.153-1.025C412.05,19.608,450.931,7.413,489.888,0" transform="translate(-39.718 0.958)" fill="none" stroke="#cec7ac" stroke-miterlimit="10" stroke-width="0.3"/></g></g><g transform="translate(0 340.47)"><path d="M0,0H378V2.014H0Z" transform="translate(0.001 0.455)" fill="none"/><g clip-path="url(#bd)"><path d="M0,1.931H357.349C401.683,2.394,446.775.815,490.9,0" transform="translate(-40.222 0.455)" fill="none" stroke="#cec7ac" stroke-miterlimit="10" stroke-width="0.3"/></g></g><g transform="translate(0 311.258)"><path d="M0,0H378V17.124H0Z" transform="translate(0.001 0.455)" fill="none"/><g clip-path="url(#aw)"><path d="M0,0H356.95c45.168-.188,88.443,9.583,132.938,17.121" transform="translate(-40.222 0.455)" fill="none" stroke="#cec7ac" stroke-miterlimit="10" stroke-width="0.3"/></g></g><g transform="translate(0 279.024)"><path d="M0,0H378V28.2H0Z" transform="translate(0.001 0.958)" fill="none"/><g clip-path="url(#bf)"><path d="M0,0H374.265c7.238.908,13.427,1.328,19.4,1.814,33.025,2.655,63.041,17.879,94.21,26.39" transform="translate(-39.718 0.958)" fill="none" stroke="#cec7ac" stroke-miterlimit="10" stroke-width="0.3"/></g></g><g transform="translate(0 248.805)"><path d="M0,0H378V18.132H0Z" transform="translate(0.001 0.455)" fill="none"/><g clip-path="url(#bg)"><path d="M0,0H391.277C403.3,1.337,414,2.051,423.948,3.308c20.886,2.2,40.329,10.206,60.9,14.824" transform="translate(-40.222 0.455)" fill="none" stroke="#cec7ac" stroke-miterlimit="10" stroke-width="0.3"/></g></g><g transform="translate(0 217.578)"><path d="M0,0H378V1.007H0Z" transform="translate(0.001 0.454)" fill="none"/><g clip-path="url(#bh)"><path d="M0,.365H446.107c7.447.04,13.923.165,19.2.165,10.563,0,16.515.112,16.515.112" transform="translate(-40.222 0.454)" fill="none" stroke="#cec7ac" stroke-miterlimit="10" stroke-width="0.3"/></g></g><g transform="translate(0 186.352)"><path d="M0,0H378V1.007H0Z" transform="translate(0.001 0.455)" fill="none"/><g clip-path="url(#ap)"><path d="M0,.5H481.824" transform="translate(-40.222 0.455)" fill="none" stroke="#cec7ac" stroke-miterlimit="10" stroke-width="0.3"/></g></g><g transform="translate(0 155.125)"><path d="M0,0H378V5.036H0Z" transform="translate(0.001 0.455)" fill="none"/><g clip-path="url(#bj)"><path d="M0,0H310.712c2.518,0,5.025,0,7.444.065,22.983,7.067,46.827,6.154,70.064.063,2.089-.055,4.165-.088,6.2-.129h87.4" transform="translate(-40.222 0.455)" fill="none" stroke="#cec7ac" stroke-miterlimit="10" stroke-width="0.3"/></g></g><g transform="translate(0 119.87)"><path d="M0,0H378V4.03H0Z" transform="translate(0.001 0.958)" fill="none"/><g clip-path="url(#bk)"><path d="M0,4.03H132.9c26.33-.891,53.7-3.576,79.786,0h82.789c2.521-.008,5.032-.018,7.5-.035a298.716,298.716,0,0,1,97.587.035h81.261" transform="translate(-39.718 0.958)" fill="none" stroke="#cec7ac" stroke-miterlimit="10" stroke-width="0.3"/></g></g><g transform="translate(0 86.628)"><path d="M0,0H378V6.044H0Z" transform="translate(0.001 0.958)" fill="none"/><g clip-path="url(#ao)"><path d="M0,6.035H103.415c6.788-.4,13.572-.784,19.1-.784,35.83-6.5,71.152-7.331,107.354-.426,6.907.278,14.09.511,22.818,1.21h65.54c16.727.17,33.5-2.315,50.275-.357,2.212.181,4.376.357,6.593.357H481.824" transform="translate(-39.718 0.958)" fill="none" stroke="#cec7ac" stroke-miterlimit="10" stroke-width="0.3"/></g></g><g transform="translate(0 62.453)"><path d="M0,0H378V3.022H0Z" transform="translate(0.001 0.455)" fill="none"/><g clip-path="url(#am)"><path d="M0,0H111.751C154.818,3.077,197.2,4.881,240.912,0H481.824" transform="translate(-40.222 0.455)" fill="none" stroke="#cec7ac" stroke-miterlimit="10" stroke-width="0.3"/></g></g><g transform="translate(0 31.227)"><path d="M0,0H378V6.044H0Z" transform="translate(0.001 0.958)" fill="none"/><g clip-path="url(#ao)"><path d="M0,0H111.751c6.469,0,13.666.443,20.506.689,27.859,6.119,57,7.908,85.324.473A201.819,201.819,0,0,1,240.912,0H481.824" transform="translate(-39.718 0.958)" fill="none" stroke="#cec7ac" stroke-miterlimit="10" stroke-width="0.3"/></g></g><g transform="translate(0 2893)"><path d="M0,0H378V963.993H0Z" transform="translate(0.001 0.888)" fill="none"/><g clip-path="url(#bo)"><path d="M.551,0V414.414q-.02,11.195-.025,22.451c-.575,22.318-.575,45.285-.478,67.782.176,7.524.443,14.989.5,22.478V963.993H482.894V750.052c.213-2.953.616-5.7,1.043-8.536,10.168-27.042,8.4-56.193-.184-83.463-.418-3.112-.709-6.314-.859-9.705V489.185c-.281-49.436,6.791-98.9,7.676-148.372.884-39.752-6.188-78.619-7.2-118.3-.139-6.636-.246-13.153-.481-20.858V0Z" transform="translate(-40.727 0.888)" fill="none" stroke="#cec7ac" stroke-miterlimit="10" stroke-width="0.3"/></g><g transform="translate(354.816)"><path d="M0,0H23.087V963.993H0Z" transform="translate(0.097 0.384)" fill="none"/><g clip-path="url(#bp)"><path d="M26.886,0V226.013a93.7,93.7,0,0,1,3.279,21.5c1.026,26.162,13.355,49.129,20.4,74.747,6.164,23.851-4.4,45.934-12.33,68.018a168.783,168.783,0,0,0-8.566,37.937c-.73,7.109-1.4,14.418-2.785,22.732V602.295c-.1,18.544-10.668,34.443-25.64,45.045a5.432,5.432,0,0,0-.881,5.3c7.928,14.134,18.5,28.267,17.425,45.46.112,4.305.336,8.631.486,12.7a180.074,180.074,0,0,0,8.454,48.94c.071,3.066.11,6.139.156,9.173V963.993" transform="translate(0.097 0.384)" fill="none" stroke="#cec7ac" stroke-miterlimit="10" stroke-width="0.3"/></g></g><path d="M24.265,0V100.255q0,5.143.023,10.489c.847,13.645-.033,26.9-.017,39.881q-.009,3.01-.006,6.068v99.6c-.891,7.664-.01,15.614,1.751,23.565,12.327,50.35-.881,98.053-1.751,147.79v42.883c0,4.359-.04,8.75-.253,13.231-5.92,39.019,6.406,79.654-5.92,118.523C13.69,616.421-3.039,627.906.483,642.923c5.282,21.2,21.131,38.867,22.22,61.941a115.871,115.871,0,0,0,1.276,12.443c.106,2.926.227,5.815.285,8.708V963.993" transform="translate(327.194 0.888)" fill="none" stroke="#cec7ac" stroke-miterlimit="10" stroke-width="0.3"/><path d="M5.514,0V80.568c.085,4.07-.827,8.487.085,12.02,9.115,25.618,8.205,51.235-.019,76.743-.055,1.9-.066,3.964-.066,6.086V446.108c0,3.365-.045,6.886-.045,10.247-3.517,61.129-9.9,122.082-.781,183.916,3.646,23.851,1.822,46.819.827,70.5V963.993" transform="translate(315.602 0.384)" fill="none" stroke="#cec7ac" stroke-miterlimit="10" stroke-width="0.3"/><path d="M14.192,0V80.568c0,3.132-.009,6.324-.081,9.523-7.794,26.347-8.689,52.848.081,79v284.23c3.752,48.262,1.069,96.849,4.645,146.315.9,14.135,12.522,26.5,14.312,38.869,1.788,20.317-17.887,37.984-18.265,59.8-.238,4.976-.691,10.478-.691,15.17v79.767c0,7.246-.717,15.133-.91,22.068C12.578,836.378.057,854.929.057,876.129-.838,893.8,9,909.7,12.383,927.306a107.693,107.693,0,0,1,1.809,20.582v16.1" transform="translate(276.794 0.888)" fill="none" stroke="#cec7ac" stroke-miterlimit="10" stroke-width="0.3"/><path d="M16.128,0V776.534c-.861,6.614-1.041,11.268-1.235,15.832.6,27.229-12.954,52.846-14.76,80.231-1.806,29.15,15.36,56.534,15.994,86.086-.1,3.205,0,5.31,0,5.31" transform="translate(245.042 0.384)" fill="none" stroke="#cec7ac" stroke-miterlimit="10" stroke-width="0.3"/><path d="M.375,0V763.643c-.016,6.024-.021,11.142-.028,16.171C.761,840.8.761,902.633.375,963.993" transform="translate(230.426 0.888)" fill="none" stroke="#cec7ac" stroke-miterlimit="10" stroke-width="0.3"/><path d="M0,0V436.868q0,11.252,0,22.544T.022,482C.029,489.529,0,497.06,0,504.582V785.137a122.529,122.529,0,0,1,1.773,17.249c.407,25.157,13.483,48.126,14.355,71.976,0,28.268-14.819,54.768-15.985,83.8,0,3.557-.143,5.834-.143,5.834" transform="translate(200.69 0.384)" fill="none" stroke="#cec7ac" stroke-miterlimit="10" stroke-width="0.3"/><path d="M7.87,0V11.655a120.58,120.58,0,0,1-.789,14.967C-.647,54.6-3.366,82.871,5.7,112.023A30.691,30.691,0,0,1,7.87,126.636V392.093c9.612,60.023,13.239,120.091,0,179.807v219.75c.042,4.47.083,8.879.165,13.244.383,4.1-.524,8.517,1.288,12.934,15.41,41.517,10.878,80.385-1.1,121.973,0,7.633-.351,14-.351,18.037v6.155" transform="translate(162.89 0.888)" fill="none" stroke="#cec7ac" stroke-miterlimit="10" stroke-width="0.3"/><path d="M1.015,0V2.98c0,1.965-.035,5.772-.035,9.515C.759,48.42-.986,85.521.787,121.8c.05,6.086.108,13.005.229,21.719v226.43c0,7.347.175,14.448.818,21C29.572,451.233,27.826,516.6,3.38,578.437c-1.747,5.3-1.747,10.6-2.2,15.81-.139,7.18-.16,14.457-.16,21.723V963.993" transform="translate(140.209 0.384)" fill="none" stroke="#cec7ac" stroke-miterlimit="10" stroke-width="0.3"/><path d="M0,0V11.655C7.776,49.3,11.307,86.4.937,124.761c0,5.305-.459,11.914-.937,18.758v226.43a102.506,102.506,0,0,0,2.3,16.164C33.373,449.466,36.9,521.018,4.245,585.5c-5.3,9.717-2.649,20.318-4.007,30.9C.122,623.463.062,630.578,0,637.629V963.993" transform="translate(110.474 0.888)" fill="none" stroke="#cec7ac" stroke-miterlimit="10" stroke-width="0.3"/><path d="M0,0V40.974c.168,3.788.233,7.763.307,11.936C1.891,66.971-.087,81.989.1,95.928.069,101.306,0,106.9,0,112.641V326.363c.006,7.053.012,14.16.023,21.2C4.86,437.1,5.849,527.2.033,616.624.018,623.611.01,630.67,0,637.629V963.993" transform="translate(80.738 0.384)" fill="none" stroke="#cec7ac" stroke-miterlimit="10" stroke-width="0.3"/><path d="M26.208,0V369.949a105.773,105.773,0,0,1-2.116,15.394c-27.935,59.707-34.124,128.61-4.945,190.444,6.19,13.25,7.074,26.5,6.842,40.677.1,7.04.158,14.14.219,21.166V963.993" transform="translate(24.29 0.384)" fill="none" stroke="#cec7ac" stroke-miterlimit="10" stroke-width="0.3"/><path d="M0,0H19.753V963.993H0Z" transform="translate(0.001 0.888)" fill="none"/><g clip-path="url(#bq)"><path d="M23.185,0V348.024c0,7.267,0,14.57-.1,21.775.207,5.466.207,11.65-1.538,16.065C-2.876,447.7-10.726,514.835,20.355,575.842a106.705,106.705,0,0,1,2.829,18.2V963.993" transform="translate(-3.431 0.888)" fill="none" stroke="#cec7ac" stroke-miterlimit="10" stroke-width="0.3"/></g><g transform="translate(0 917.657)"><path d="M0,0H378V15.109H0Z" transform="translate(0.001 0.385)" fill="none"/><g clip-path="url(#br)"><path d="M0,15.109H195.976c6.064-1.026,11.483-1.506,16.784-2.036,21.531-2.468,40.074-15.3,62.15-12.735,22.959,2.567,44.152,13.69,68.214,14.527,4.739.187,9.319.244,13.78.244H481.824" transform="translate(-40.222 0.385)" fill="none" stroke="#cec7ac" stroke-miterlimit="10" stroke-width="0.3"/></g></g><g transform="translate(0 887.437)"><path d="M0,0H378V14.1H0Z" transform="translate(0.001 0.888)" fill="none"/><g clip-path="url(#bs)"><path d="M0,14.1H181.241c28.324-.907,53.933-7.754,82.19-13.747,7.064-.856,13.245,0,20.31.855,24.725,5.137,48.566,11.985,73.165,12.892H481.824" transform="translate(-39.718 0.888)" fill="none" stroke="#cec7ac" stroke-miterlimit="10" stroke-width="0.3"/></g></g><g transform="translate(0 870.313)"><path d="M0,0H378V3.022H0Z" transform="translate(0.001 0.384)" fill="none"/><g clip-path="url(#bt)"><path d="M0,0H181.241c56.582,2.947,113.98,4.821,170.494.378C356.418.341,361.387.294,370.073,0H481.824" transform="translate(-40.222 0.384)" fill="none" stroke="#cec7ac" stroke-miterlimit="10" stroke-width="0.3"/></g></g><g transform="translate(0 839.087)"><path d="M0,0H378V19.139H0Z" transform="translate(0.001 0.384)" fill="none"/><g clip-path="url(#bu)"><path d="M0,.02H181.241c29.207-.593,54.816,12.095,83.956,18.439a37.041,37.041,0,0,0,14.129,0C305.817,12.115,329.659.333,356.907.02H481.824" transform="translate(-40.222 0.384)" fill="none" stroke="#cec7ac" stroke-miterlimit="10" stroke-width="0.3"/></g></g><g transform="translate(0 807.86)"><path d="M0,0H378V6.044H0Z" transform="translate(0.001 0.888)" fill="none"/><g clip-path="url(#bv)"><path d="M0,0H195.976c4.961.057,9.941.1,14.942.183,40.15,6.957,79.005,8.629,118.4-.005,4.724-.08,9.389-.124,14-.178h138.5" transform="translate(-39.718 0.888)" fill="none" stroke="#cec7ac" stroke-miterlimit="10" stroke-width="0.3"/></g></g><g transform="translate(0 776.634)"><path d="M0,0H378V1.007H0Z" transform="translate(0.001 0.384)" fill="none"/><g clip-path="url(#bw)"><path d="M0,.5H481.824" transform="translate(-40.222 0.384)" fill="none" stroke="#cec7ac" stroke-miterlimit="10" stroke-width="0.3"/></g></g><g transform="translate(0 746.414)"><path d="M0,0H378V4.03H0Z" transform="translate(0.001 0.384)" fill="none"/><g clip-path="url(#bx)"><path d="M0,0H407.032a57.721,57.721,0,0,1,7.918.651A169.84,169.84,0,0,0,482.832.556" transform="translate(-40.222 0.384)" fill="none" stroke="#cec7ac" stroke-miterlimit="10" stroke-width="0.3"/></g></g><g transform="translate(0 715.188)"><path d="M0,0H378V10.073H0Z" transform="translate(0.001 0.888)" fill="none"/><g clip-path="url(#by)"><path d="M0,0H389.541A62.781,62.781,0,0,1,402.19,2.006c27.936,9.228,59.775,11.79,87.7,1.013" transform="translate(-40.726 0.888)" fill="none" stroke="#cec7ac" stroke-miterlimit="10" stroke-width="0.3"/></g></g><g transform="translate(0 656.764)"><path d="M0,0H378V27.2H0Z" transform="translate(0.001 0.888)" fill="none"/><g clip-path="url(#bz)"><path d="M0,27.157H298.7c3.245,0,6.561-.078,9.689,0C331.526,28.335,344.775,4.911,362.442.574s36.216,17.351,58.428,17.053c4.912.171,9.093-.12,13.476-.172,18.475-2.146,37.341-.538,54.535,6.455" transform="translate(-39.718 0.888)" fill="none" stroke="#cec7ac" stroke-miterlimit="10" stroke-width="0.3"/></g></g><g transform="translate(0 641.654)"><path d="M0,0H378V11.08H0Z" transform="translate(0.001 0.888)" fill="none"/><g clip-path="url(#ca)"><path d="M0,11.08H287.3c3.113,0,6.259-.016,9.7-.169C319.57,9.768,339.913-2.993,362.909.653c22.111,3.646,43.338,8.2,65.246,7.318,2.863-.083,5.7-.157,10.689-.032,14.664-.837,29.237-.426,43.988,2.8" transform="translate(-40.726 0.888)" fill="none" stroke="#cec7ac" stroke-miterlimit="10" stroke-width="0.3"/></g></g><g transform="translate(0 621.508)"><path d="M0,0H378V15.109H0Z" transform="translate(0.001 0.384)" fill="none"/><g clip-path="url(#cb)"><path d="M0,.515H274.691c3.731,0,7.529-.009,11.712-.065,27.362-2.733,51.2,7.641,77.7,13.692,23.841,5.188,47.683-12.1,73.259-13.627h44.465" transform="translate(-40.222 0.384)" fill="none" stroke="#cec7ac" stroke-miterlimit="10" stroke-width="0.3"/></g></g><g transform="translate(0 590.282)"><path d="M0,0H378V7.051H0Z" transform="translate(0.001 0.384)" fill="none"/><g clip-path="url(#cc)"><path d="M0,.388H35.69c7.436,0,15.853.015,24.866.557,46.576,6.568,93.378,2.1,140.369-.557h72.8c3.5,0,7.393-.163,10.545-.029,26.847-1.792,52.456,3.576,78.948,6.259C379.994,9.3,396.771-1.433,414.728.388h67.1" transform="translate(-40.222 0.384)" fill="none" stroke="#cec7ac" stroke-miterlimit="10" stroke-width="0.3"/></g></g><g transform="translate(0 560.063)"><path d="M0,0H378V17.125H0Z" transform="translate(0.001 0.384)" fill="none"/><g clip-path="url(#cd)"><path d="M0,.2H16.523c59.7,14.877,121.515,27.875,182.447,2.745A48.879,48.879,0,0,1,220.96.3c6.578-.093,13.26-.1,19.952-.1H481.824" transform="translate(-40.222 0.384)" fill="none" stroke="#cec7ac" stroke-miterlimit="10" stroke-width="0.3"/></g></g><g transform="translate(0 527.829)"><path d="M0,0H378V28.205H0Z" transform="translate(0.001 0.888)" fill="none"/><g clip-path="url(#ce)"><path d="M0,.168A25.366,25.366,0,0,1,13.529,2.287C77.109,33.59,148.636,38.956,213.1,4.971,221.928.5,231.641.5,241.332.454c6.51-.133,13.1-.2,19.635-.286H481.824" transform="translate(-39.718 0.888)" fill="none" stroke="#cec7ac" stroke-miterlimit="10" stroke-width="0.3"/></g></g><g transform="translate(0 497.61)"><path d="M0,0H378V16.118H0Z" transform="translate(0.001 0.384)" fill="none"/><g clip-path="url(#cf)"><path d="M0,.09C5.554.522,11.736.522,17.036,1.432,87.7,23.3,158.369,18.743,227.671.9,231.84.5,236.326.2,241.842,0h240.99" transform="translate(-41.23 0.384)" fill="none" stroke="#cec7ac" stroke-miterlimit="10" stroke-width="0.3"/></g></g><g transform="translate(0 443.215)"><path d="M0,0H378V23.168H0Z" transform="translate(0.001 0.888)" fill="none"/><g clip-path="url(#cg)"><path d="M0,23.063c50.421-9.707,98.14-30.69,152.931-20.2,30.928,5.245,58.323,19.234,89.6,20.1,6.4.087,12.9.139,19.283.208H482.832" transform="translate(-40.726 0.888)" fill="none" stroke="#cec7ac" stroke-miterlimit="10" stroke-width="0.3"/></g></g><g transform="translate(0 408.967)"><path d="M0,0H378V26.189H0Z" transform="translate(0.001 0.888)" fill="none"/><g clip-path="url(#ch)"><path d="M0,26.189A114.141,114.141,0,0,0,14.078,24.9c63.95-31.92,135.508-33.666,200.885-2.217,7.951,3.492,17.668,2.619,26.372,3.254,6.548.125,13.165.19,19.752.258H387.88c9.245,0,18.045-.027,26.324-.16,24.271-.732,46.357-8.593,69.636-12.969" transform="translate(-39.718 0.888)" fill="none" stroke="#cec7ac" stroke-miterlimit="10" stroke-width="0.3"/></g></g><g transform="translate(0 375.725)"><path d="M0,0H378V28.205H0Z" transform="translate(0.001 0.887)" fill="none"/><g clip-path="url(#ci)"><path d="M0,27.93H16.54c30.594-.727,58-13.147,88.936-15.808,33.591-2.662,64.529,8.87,96.193,15.248,6.181.469,12.738.56,19.417.56H367.859c42.586,2.822,80.6-16.7,120.013-27.93" transform="translate(-39.718 0.887)" fill="none" stroke="#cec7ac" stroke-miterlimit="10" stroke-width="0.3"/></g></g><g transform="translate(0 352.557)"><path d="M0,0H378V20.146H0Z" transform="translate(0.001 0.888)" fill="none"/><g clip-path="url(#cj)"><path d="M0,20.146H60.845C94.831,17,128.409,17.867,162.13,19.8c6.309.2,12.737.264,19.23.344H352.652c7.933-.721,13.614-.868,19.153-1.025C412.05,19.609,450.931,7.413,489.888,0" transform="translate(-39.718 0.888)" fill="none" stroke="#cec7ac" stroke-miterlimit="10" stroke-width="0.3"/></g></g><g transform="translate(0 340.47)"><path d="M0,0H378V2.015H0Z" transform="translate(0.001 0.384)" fill="none"/><g clip-path="url(#ck)"><path d="M0,1.932H357.349C401.683,2.394,446.775.815,490.9,0" transform="translate(-40.222 0.384)" fill="none" stroke="#cec7ac" stroke-miterlimit="10" stroke-width="0.3"/></g></g><g transform="translate(0 311.258)"><path d="M0,0H378V17.124H0Z" transform="translate(0.001 0.384)" fill="none"/><g clip-path="url(#cl)"><path d="M0,0H356.95c45.168-.188,88.443,9.583,132.938,17.121" transform="translate(-40.222 0.384)" fill="none" stroke="#cec7ac" stroke-miterlimit="10" stroke-width="0.3"/></g></g><g transform="translate(0 279.024)"><path d="M0,0H378V28.2H0Z" transform="translate(0.001 0.888)" fill="none"/><g clip-path="url(#cm)"><path d="M0,0H374.265c7.238.909,13.427,1.328,19.4,1.814,33.025,2.655,63.041,17.879,94.21,26.39" transform="translate(-39.718 0.888)" fill="none" stroke="#cec7ac" stroke-miterlimit="10" stroke-width="0.3"/></g></g><g transform="translate(0 248.805)"><path d="M0,0H378V18.132H0Z" transform="translate(0.001 0.384)" fill="none"/><g clip-path="url(#cn)"><path d="M0,0H391.277C403.3,1.338,414,2.052,423.948,3.309c20.886,2.2,40.329,10.206,60.9,14.823" transform="translate(-40.222 0.384)" fill="none" stroke="#cec7ac" stroke-miterlimit="10" stroke-width="0.3"/></g></g><g transform="translate(0 217.578)"><path d="M0,0H378V1.007H0Z" transform="translate(0.001 0.384)" fill="none"/><g clip-path="url(#bw)"><path d="M0,.365H446.107c7.447.04,13.923.165,19.2.165,10.563,0,16.515.113,16.515.113" transform="translate(-40.222 0.384)" fill="none" stroke="#cec7ac" stroke-miterlimit="10" stroke-width="0.3"/></g></g><g transform="translate(0 186.352)"><path d="M0,0H378V1.007H0Z" transform="translate(0.001 0.384)" fill="none"/><g clip-path="url(#bw)"><path d="M0,.5H481.824" transform="translate(-40.222 0.384)" fill="none" stroke="#cec7ac" stroke-miterlimit="10" stroke-width="0.3"/></g></g><g transform="translate(0 155.125)"><path d="M0,0H378V5.037H0Z" transform="translate(0.001 0.384)" fill="none"/><g clip-path="url(#cq)"><path d="M0,0H310.712c2.518,0,5.025,0,7.444.065,22.983,7.068,46.827,6.155,70.064.063,2.089-.055,4.165-.088,6.2-.129h87.4" transform="translate(-40.222 0.384)" fill="none" stroke="#cec7ac" stroke-miterlimit="10" stroke-width="0.3"/></g></g><g transform="translate(0 119.87)"><path d="M0,0H378V4.029H0Z" transform="translate(0.001 0.888)" fill="none"/><g clip-path="url(#cr)"><path d="M0,4.029H132.9c26.33-.891,53.7-3.576,79.786,0h82.789c2.521-.008,5.032-.018,7.5-.035a298.771,298.771,0,0,1,97.587.035h81.261" transform="translate(-39.718 0.888)" fill="none" stroke="#cec7ac" stroke-miterlimit="10" stroke-width="0.3"/></g></g><g transform="translate(0 86.628)"><path d="M0,0H378V6.044H0Z" transform="translate(0.001 0.888)" fill="none"/><g clip-path="url(#bv)"><path d="M0,6.035H103.415c6.788-.4,13.572-.784,19.1-.784,35.83-6.5,71.152-7.331,107.354-.426,6.907.277,14.09.511,22.818,1.21h65.54c16.727.171,33.5-2.315,50.275-.357,2.212.181,4.376.357,6.593.357H481.824" transform="translate(-39.718 0.888)" fill="none" stroke="#cec7ac" stroke-miterlimit="10" stroke-width="0.3"/></g></g><g transform="translate(0 62.453)"><path d="M0,0H378V3.022H0Z" transform="translate(0.001 0.384)" fill="none"/><g clip-path="url(#bt)"><path d="M0,0H111.751C154.818,3.077,197.2,4.882,240.912,0H481.824" transform="translate(-40.222 0.384)" fill="none" stroke="#cec7ac" stroke-miterlimit="10" stroke-width="0.3"/></g></g><g transform="translate(0 31.227)"><path d="M0,0H378V6.044H0Z" transform="translate(0.001 0.888)" fill="none"/><g clip-path="url(#bv)"><path d="M0,0H111.751c6.469,0,13.666.443,20.506.69,27.859,6.119,57,7.907,85.324.473A201.6,201.6,0,0,1,240.912,0H481.824" transform="translate(-39.718 0.888)" fill="none" stroke="#cec7ac" stroke-miterlimit="10" stroke-width="0.3"/></g></g></g><g transform="translate(0 1929)"><path d="M0,0H378V963.993H0Z" transform="translate(0.001 0.857)" fill="none"/><g clip-path="url(#cv)"><path d="M.551,0V414.414q-.02,11.195-.025,22.451c-.575,22.318-.575,45.285-.478,67.781.176,7.525.443,14.989.5,22.479V963.993H482.894V750.052c.213-2.954.616-5.7,1.043-8.536,10.168-27.042,8.4-56.193-.184-83.463-.418-3.113-.709-6.314-.859-9.705V489.185c-.281-49.436,6.791-98.9,7.676-148.373.884-39.751-6.188-78.618-7.2-118.3-.139-6.637-.246-13.153-.481-20.858V0Z" transform="translate(-40.727 0.857)" fill="none" stroke="#cec7ac" stroke-miterlimit="10" stroke-width="0.3"/></g><g transform="translate(354.816)"><path d="M0,0H23.087V963.993H0Z" transform="translate(0.097 0.353)" fill="none"/><g clip-path="url(#cw)"><path d="M26.886,0V226.013a93.7,93.7,0,0,1,3.279,21.5c1.026,26.162,13.355,49.128,20.4,74.746,6.164,23.852-4.4,45.935-12.33,68.019a168.783,168.783,0,0,0-8.566,37.937c-.73,7.109-1.4,14.418-2.785,22.732V602.295c-.1,18.544-10.668,34.443-25.64,45.044a5.434,5.434,0,0,0-.881,5.3c7.928,14.134,18.5,28.267,17.425,45.459.112,4.306.336,8.632.486,12.7a180.074,180.074,0,0,0,8.454,48.94c.071,3.065.11,6.138.156,9.173V963.993" transform="translate(0.097 0.353)" fill="none" stroke="#cec7ac" stroke-miterlimit="10" stroke-width="0.3"/></g></g><path d="M24.265,0V100.255q0,5.142.023,10.489c.847,13.645-.033,26.9-.017,39.881q-.009,3.01-.006,6.067v99.6c-.891,7.664-.01,15.614,1.751,23.565,12.327,50.35-.881,98.052-1.751,147.79v42.882c0,4.36-.04,8.751-.253,13.232-5.92,39.019,6.406,79.654-5.92,118.523C13.69,616.421-3.039,627.906.483,642.923c5.282,21.2,21.131,38.867,22.22,61.94a115.863,115.863,0,0,0,1.276,12.444c.106,2.926.227,5.815.285,8.708V963.993" transform="translate(327.194 0.857)" fill="none" stroke="#cec7ac" stroke-miterlimit="10" stroke-width="0.3"/><path d="M5.514,0V80.568c.085,4.07-.827,8.487.085,12.02,9.115,25.618,8.205,51.235-.019,76.742-.055,1.9-.066,3.965-.066,6.086V446.108c0,3.364-.045,6.886-.045,10.246-3.517,61.129-9.9,122.083-.781,183.917,3.646,23.851,1.822,46.819.827,70.5V963.993" transform="translate(315.602 0.353)" fill="none" stroke="#cec7ac" stroke-miterlimit="10" stroke-width="0.3"/><path d="M14.192,0V80.568c0,3.132-.009,6.323-.081,9.523-7.794,26.347-8.689,52.848.081,79v284.23c3.752,48.262,1.069,96.849,4.645,146.315.9,14.133,12.522,26.5,14.312,38.869,1.788,20.317-17.887,37.984-18.265,59.8-.238,4.976-.691,10.478-.691,15.17v79.766c0,7.247-.717,15.133-.91,22.068C12.578,836.378.057,854.929.057,876.128-.838,893.8,9,909.7,12.383,927.306a107.693,107.693,0,0,1,1.809,20.582v16.1" transform="translate(276.794 0.857)" fill="none" stroke="#cec7ac" stroke-miterlimit="10" stroke-width="0.3"/><path d="M16.128,0V776.534c-.861,6.613-1.041,11.268-1.235,15.832.6,27.229-12.954,52.846-14.76,80.23-1.806,29.15,15.36,56.535,15.994,86.086-.1,3.206,0,5.31,0,5.31" transform="translate(245.042 0.353)" fill="none" stroke="#cec7ac" stroke-miterlimit="10" stroke-width="0.3"/><path d="M.375,0V763.643c-.016,6.024-.021,11.142-.028,16.171C.761,840.8.761,902.633.375,963.993" transform="translate(230.426 0.857)" fill="none" stroke="#cec7ac" stroke-miterlimit="10" stroke-width="0.3"/><path d="M0,0V436.868q0,11.252,0,22.543T.022,482C.029,489.529,0,497.059,0,504.582V785.136a122.54,122.54,0,0,1,1.773,17.25c.407,25.157,13.483,48.125,14.355,71.976,0,28.268-14.819,54.768-15.985,83.8,0,3.557-.143,5.834-.143,5.834" transform="translate(200.69 0.353)" fill="none" stroke="#cec7ac" stroke-miterlimit="10" stroke-width="0.3"/><path d="M7.87,0V11.655a120.589,120.589,0,0,1-.789,14.967C-.647,54.6-3.366,82.871,5.7,112.023A30.689,30.689,0,0,1,7.87,126.635V392.092c9.612,60.024,13.239,120.092,0,179.808v219.75c.042,4.47.083,8.878.165,13.244.383,4.1-.524,8.516,1.288,12.934,15.41,41.517,10.878,80.384-1.1,121.972,0,7.634-.351,14-.351,18.038v6.155" transform="translate(162.89 0.857)" fill="none" stroke="#cec7ac" stroke-miterlimit="10" stroke-width="0.3"/><path d="M1.015,0V2.98c0,1.964-.035,5.772-.035,9.515C.759,48.42-.986,85.52.787,121.8c.05,6.087.108,13.006.229,21.72v226.43c0,7.347.175,14.448.818,21C29.572,451.232,27.826,516.6,3.38,578.437c-1.747,5.3-1.747,10.6-2.2,15.81-.139,7.18-.16,14.457-.16,21.723V963.993" transform="translate(140.209 0.353)" fill="none" stroke="#cec7ac" stroke-miterlimit="10" stroke-width="0.3"/><path d="M0,0V11.655C7.776,49.3,11.307,86.4.937,124.761c0,5.3-.459,11.913-.937,18.758v226.43a102.506,102.506,0,0,0,2.3,16.164C33.373,449.466,36.9,521.018,4.245,585.5c-5.3,9.716-2.649,20.318-4.007,30.9-.116,7.064-.175,14.18-.238,21.23V963.993" transform="translate(110.474 0.857)" fill="none" stroke="#cec7ac" stroke-miterlimit="10" stroke-width="0.3"/><path d="M0,0V40.974c.168,3.788.233,7.763.307,11.936C1.891,66.971-.087,81.988.1,95.928.069,101.306,0,106.9,0,112.64V326.363c.006,7.053.012,14.159.023,21.2C4.86,437.1,5.849,527.2.033,616.624c-.015,6.987-.023,14.046-.033,21V963.993" transform="translate(80.738 0.353)" fill="none" stroke="#cec7ac" stroke-miterlimit="10" stroke-width="0.3"/><path d="M26.208,0V369.949a105.773,105.773,0,0,1-2.116,15.394c-27.935,59.707-34.124,128.609-4.945,190.444,6.19,13.25,7.074,26.5,6.842,40.677.1,7.04.158,14.14.219,21.165V963.993" transform="translate(24.29 0.353)" fill="none" stroke="#cec7ac" stroke-miterlimit="10" stroke-width="0.3"/><path d="M0,0H19.753V963.993H0Z" transform="translate(0.001 0.857)" fill="none"/><g clip-path="url(#cx)"><path d="M23.185,0V348.023c0,7.268,0,14.57-.1,21.776.207,5.466.207,11.648-1.538,16.065C-2.876,447.7-10.726,514.835,20.355,575.842a106.69,106.69,0,0,1,2.829,18.2V963.993" transform="translate(-3.431 0.857)" fill="none" stroke="#cec7ac" stroke-miterlimit="10" stroke-width="0.3"/></g><g transform="translate(0 917.657)"><path d="M0,0H378V15.11H0Z" transform="translate(0.001 0.353)" fill="none"/><g clip-path="url(#cy)"><path d="M0,15.11H195.976c6.064-1.026,11.483-1.506,16.784-2.036,21.531-2.468,40.074-15.3,62.15-12.736,22.959,2.568,44.152,13.691,68.214,14.528,4.739.187,9.319.244,13.78.244H481.824" transform="translate(-40.222 0.353)" fill="none" stroke="#cec7ac" stroke-miterlimit="10" stroke-width="0.3"/></g></g><g transform="translate(0 887.437)"><path d="M0,0H378V14.1H0Z" transform="translate(0.001 0.858)" fill="none"/><g clip-path="url(#cz)"><path d="M0,14.1H181.241c28.324-.907,53.933-7.754,82.19-13.747,7.064-.856,13.245,0,20.31.855,24.725,5.137,48.566,11.985,73.165,12.892H481.824" transform="translate(-39.718 0.858)" fill="none" stroke="#cec7ac" stroke-miterlimit="10" stroke-width="0.3"/></g></g><g transform="translate(0 870.313)"><path d="M0,0H378V3.022H0Z" transform="translate(0.001 0.353)" fill="none"/><g clip-path="url(#da)"><path d="M0,0H181.241c56.582,2.946,113.98,4.821,170.494.378C356.418.341,361.387.294,370.073,0H481.824" transform="translate(-40.222 0.353)" fill="none" stroke="#cec7ac" stroke-miterlimit="10" stroke-width="0.3"/></g></g><g transform="translate(0 839.087)"><path d="M0,0H378V19.139H0Z" transform="translate(0.001 0.354)" fill="none"/><g clip-path="url(#db)"><path d="M0,.02H181.241c29.207-.593,54.816,12.094,83.956,18.439a37.041,37.041,0,0,0,14.129,0C305.817,12.114,329.659.333,356.907.02H481.824" transform="translate(-40.222 0.354)" fill="none" stroke="#cec7ac" stroke-miterlimit="10" stroke-width="0.3"/></g></g><g transform="translate(0 807.86)"><path d="M0,0H378V6.044H0Z" transform="translate(0.001 0.857)" fill="none"/><g clip-path="url(#dc)"><path d="M0,0H195.976c4.961.057,9.941.1,14.942.183,40.15,6.957,79.005,8.629,118.4-.005,4.724-.08,9.389-.124,14-.178h138.5" transform="translate(-39.718 0.857)" fill="none" stroke="#cec7ac" stroke-miterlimit="10" stroke-width="0.3"/></g></g><g transform="translate(0 776.634)"><path d="M0,0H378V1.007H0Z" transform="translate(0.001 0.353)" fill="none"/><g clip-path="url(#dd)"><path d="M0,.5H481.824" transform="translate(-40.222 0.353)" fill="none" stroke="#cec7ac" stroke-miterlimit="10" stroke-width="0.3"/></g></g><g transform="translate(0 746.414)"><path d="M0,0H378V4.03H0Z" transform="translate(0.001 0.353)" fill="none"/><g clip-path="url(#de)"><path d="M0,0H407.032a57.721,57.721,0,0,1,7.918.651A169.84,169.84,0,0,0,482.832.556" transform="translate(-40.222 0.353)" fill="none" stroke="#cec7ac" stroke-miterlimit="10" stroke-width="0.3"/></g></g><g transform="translate(0 715.188)"><path d="M0,0H378V10.073H0Z" transform="translate(0.001 0.857)" fill="none"/><g clip-path="url(#df)"><path d="M0,0H389.541A62.781,62.781,0,0,1,402.19,2.006c27.936,9.228,59.775,11.79,87.7,1.013" transform="translate(-40.726 0.857)" fill="none" stroke="#cec7ac" stroke-miterlimit="10" stroke-width="0.3"/></g></g><g transform="translate(0 656.764)"><path d="M0,0H378V27.2H0Z" transform="translate(0.001 0.857)" fill="none"/><g clip-path="url(#dg)"><path d="M0,27.158H298.7c3.245,0,6.561-.078,9.689,0C331.526,28.336,344.775,4.912,362.442.573s36.216,17.352,58.428,17.054c4.912.171,9.093-.12,13.476-.172,18.475-2.146,37.341-.538,54.535,6.455" transform="translate(-39.718 0.857)" fill="none" stroke="#cec7ac" stroke-miterlimit="10" stroke-width="0.3"/></g></g><g transform="translate(0 641.654)"><path d="M0,0H378V11.08H0Z" transform="translate(0.001 0.857)" fill="none"/><g clip-path="url(#dh)"><path d="M0,11.08H287.3c3.113,0,6.259-.016,9.7-.169C319.57,9.768,339.913-2.993,362.909.653c22.111,3.646,43.338,8.2,65.246,7.318,2.863-.083,5.7-.158,10.689-.032,14.664-.837,29.237-.426,43.988,2.8" transform="translate(-40.726 0.857)" fill="none" stroke="#cec7ac" stroke-miterlimit="10" stroke-width="0.3"/></g></g><g transform="translate(0 621.508)"><path d="M0,0H378V15.109H0Z" transform="translate(0.001 0.354)" fill="none"/><g clip-path="url(#di)"><path d="M0,.515H274.691c3.731,0,7.529-.009,11.712-.065,27.362-2.733,51.2,7.641,77.7,13.692,23.841,5.188,47.683-12.1,73.259-13.627h44.465" transform="translate(-40.222 0.354)" fill="none" stroke="#cec7ac" stroke-miterlimit="10" stroke-width="0.3"/></g></g><g transform="translate(0 590.282)"><path d="M0,0H378V7.052H0Z" transform="translate(0.001 0.353)" fill="none"/><g clip-path="url(#dj)"><path d="M0,.389H35.69c7.436,0,15.853.015,24.866.557,46.576,6.568,93.378,2.1,140.369-.557h72.8c3.5,0,7.393-.163,10.545-.03,26.847-1.791,52.456,3.577,78.948,6.26C379.994,9.3,396.771-1.433,414.728.389h67.1" transform="translate(-40.222 0.353)" fill="none" stroke="#cec7ac" stroke-miterlimit="10" stroke-width="0.3"/></g></g><g transform="translate(0 560.063)"><path d="M0,0H378V17.124H0Z" transform="translate(0.001 0.354)" fill="none"/><g clip-path="url(#dk)"><path d="M0,.2H16.523c59.7,14.878,121.515,27.876,182.447,2.745A48.878,48.878,0,0,1,220.96.3c6.578-.093,13.26-.1,19.952-.1H481.824" transform="translate(-40.222 0.354)" fill="none" stroke="#cec7ac" stroke-miterlimit="10" stroke-width="0.3"/></g></g><g transform="translate(0 527.829)"><path d="M0,0H378V28.205H0Z" transform="translate(0.001 0.857)" fill="none"/><g clip-path="url(#dl)"><path d="M0,.168A25.366,25.366,0,0,1,13.529,2.287C77.109,33.59,148.636,38.956,213.1,4.971,221.928.5,231.641.5,241.332.454c6.51-.133,13.1-.2,19.635-.286H481.824" transform="translate(-39.718 0.857)" fill="none" stroke="#cec7ac" stroke-miterlimit="10" stroke-width="0.3"/></g></g><g transform="translate(0 497.61)"><path d="M0,0H378V16.118H0Z" transform="translate(0.001 0.353)" fill="none"/><g clip-path="url(#dm)"><path d="M0,.09C5.554.522,11.736.522,17.036,1.432,87.7,23.3,158.369,18.743,227.671.9,231.84.5,236.326.2,241.842,0h240.99" transform="translate(-41.23 0.353)" fill="none" stroke="#cec7ac" stroke-miterlimit="10" stroke-width="0.3"/></g></g><g transform="translate(0 443.215)"><path d="M0,0H378V23.169H0Z" transform="translate(0.001 0.857)" fill="none"/><g clip-path="url(#dn)"><path d="M0,23.064c50.421-9.708,98.14-30.691,152.931-20.2,30.928,5.245,58.323,19.235,89.6,20.1,6.4.087,12.9.139,19.283.208H482.832" transform="translate(-40.726 0.857)" fill="none" stroke="#cec7ac" stroke-miterlimit="10" stroke-width="0.3"/></g></g><g transform="translate(0 408.967)"><path d="M0,0H378V26.19H0Z" transform="translate(0.001 0.857)" fill="none"/><g clip-path="url(#do)"><path d="M0,26.19A114.141,114.141,0,0,0,14.078,24.9C78.027-7.025,149.586-8.771,214.963,22.678c7.951,3.492,17.668,2.619,26.372,3.254,6.548.125,13.165.19,19.752.258H387.88c9.245,0,18.045-.027,26.324-.161,24.271-.731,46.357-8.592,69.636-12.969" transform="translate(-39.718 0.857)" fill="none" stroke="#cec7ac" stroke-miterlimit="10" stroke-width="0.3"/></g></g><g transform="translate(0 375.725)"><path d="M0,0H378V28.205H0Z" transform="translate(0.001 0.857)" fill="none"/><g clip-path="url(#dl)"><path d="M0,27.93H16.54c30.594-.727,58-13.148,88.936-15.809,33.591-2.661,64.529,8.871,96.193,15.248,6.181.47,12.738.561,19.417.561H367.859c42.586,2.822,80.6-16.7,120.013-27.93" transform="translate(-39.718 0.857)" fill="none" stroke="#cec7ac" stroke-miterlimit="10" stroke-width="0.3"/></g></g><g transform="translate(0 352.557)"><path d="M0,0H378V20.146H0Z" transform="translate(0.001 0.857)" fill="none"/><g clip-path="url(#dq)"><path d="M0,20.146H60.845C94.831,17,128.409,17.867,162.13,19.8c6.309.2,12.737.265,19.23.346H352.652c7.933-.721,13.614-.868,19.153-1.025C412.05,19.609,450.931,7.413,489.888,0" transform="translate(-39.718 0.857)" fill="none" stroke="#cec7ac" stroke-miterlimit="10" stroke-width="0.3"/></g></g><g transform="translate(0 340.47)"><path d="M0,0H378V2.015H0Z" transform="translate(0.001 0.353)" fill="none"/><g clip-path="url(#dr)"><path d="M0,1.932H357.349C401.683,2.394,446.775.815,490.9,0" transform="translate(-40.222 0.353)" fill="none" stroke="#cec7ac" stroke-miterlimit="10" stroke-width="0.3"/></g></g><g transform="translate(0 311.258)"><path d="M0,0H378V17.124H0Z" transform="translate(0.001 0.354)" fill="none"/><g clip-path="url(#dk)"><path d="M0,0H356.95c45.168-.188,88.443,9.583,132.938,17.121" transform="translate(-40.222 0.354)" fill="none" stroke="#cec7ac" stroke-miterlimit="10" stroke-width="0.3"/></g></g><g transform="translate(0 279.024)"><path d="M0,0H378V28.2H0Z" transform="translate(0.001 0.857)" fill="none"/><g clip-path="url(#dt)"><path d="M0,0H374.265c7.238.909,13.427,1.328,19.4,1.814,33.025,2.655,63.041,17.879,94.21,26.39" transform="translate(-39.718 0.857)" fill="none" stroke="#cec7ac" stroke-miterlimit="10" stroke-width="0.3"/></g></g><g transform="translate(0 248.805)"><path d="M0,0H378V18.132H0Z" transform="translate(0.001 0.353)" fill="none"/><g clip-path="url(#du)"><path d="M0,0H391.277C403.3,1.338,414,2.051,423.948,3.309c20.886,2.2,40.329,10.206,60.9,14.823" transform="translate(-40.222 0.353)" fill="none" stroke="#cec7ac" stroke-miterlimit="10" stroke-width="0.3"/></g></g><g transform="translate(0 217.578)"><path d="M0,0H378V1.007H0Z" transform="translate(0.001 0.354)" fill="none"/><g clip-path="url(#dv)"><path d="M0,.365H446.107c7.447.04,13.923.165,19.2.165,10.563,0,16.515.113,16.515.113" transform="translate(-40.222 0.354)" fill="none" stroke="#cec7ac" stroke-miterlimit="10" stroke-width="0.3"/></g></g><g transform="translate(0 186.352)"><path d="M0,0H378V1.007H0Z" transform="translate(0.001 0.353)" fill="none"/><g clip-path="url(#dd)"><path d="M0,.5H481.824" transform="translate(-40.222 0.353)" fill="none" stroke="#cec7ac" stroke-miterlimit="10" stroke-width="0.3"/></g></g><g transform="translate(0 155.125)"><path d="M0,0H378V5.037H0Z" transform="translate(0.001 0.353)" fill="none"/><g clip-path="url(#dx)"><path d="M0,0H310.712c2.518,0,5.025,0,7.444.065,22.983,7.068,46.827,6.154,70.064.063,2.089-.055,4.165-.088,6.2-.129h87.4" transform="translate(-40.222 0.353)" fill="none" stroke="#cec7ac" stroke-miterlimit="10" stroke-width="0.3"/></g></g><g transform="translate(0 119.87)"><path d="M0,0H378V4.029H0Z" transform="translate(0.001 0.857)" fill="none"/><g clip-path="url(#dy)"><path d="M0,4.029H132.9c26.33-.891,53.7-3.576,79.786,0h82.789c2.521-.008,5.032-.018,7.5-.035a298.771,298.771,0,0,1,97.587.035h81.261" transform="translate(-39.718 0.857)" fill="none" stroke="#cec7ac" stroke-miterlimit="10" stroke-width="0.3"/></g></g><g transform="translate(0 86.628)"><path d="M0,0H378V6.044H0Z" transform="translate(0.001 0.858)" fill="none"/><g clip-path="url(#dz)"><path d="M0,6.035H103.415c6.788-.4,13.572-.784,19.1-.784,35.83-6.5,71.152-7.331,107.354-.426,6.907.277,14.09.511,22.818,1.21h65.54c16.727.17,33.5-2.315,50.275-.357,2.212.18,4.376.357,6.593.357H481.824" transform="translate(-39.718 0.858)" fill="none" stroke="#cec7ac" stroke-miterlimit="10" stroke-width="0.3"/></g></g><g transform="translate(0 62.453)"><path d="M0,0H378V3.022H0Z" transform="translate(0.001 0.353)" fill="none"/><g clip-path="url(#da)"><path d="M0,0H111.751C154.818,3.077,197.2,4.882,240.912,0H481.824" transform="translate(-40.222 0.353)" fill="none" stroke="#cec7ac" stroke-miterlimit="10" stroke-width="0.3"/></g></g><g transform="translate(0 31.227)"><path d="M0,0H378V6.044H0Z" transform="translate(0.001 0.857)" fill="none"/><g clip-path="url(#dc)"><path d="M0,0H111.751c6.469,0,13.666.443,20.506.69,27.859,6.119,57,7.907,85.324.472A201.819,201.819,0,0,1,240.912,0H481.824" transform="translate(-39.718 0.857)" fill="none" stroke="#cec7ac" stroke-miterlimit="10" stroke-width="0.3"/></g></g></g></g></svg>