<?xml version="1.0" encoding="utf-8"?>
<svg width="13px" height="201px" viewBox="0 0 13 201" version="1.1" xmlns:xlink="http://www.w3.org/1999/xlink" xmlns="http://www.w3.org/2000/svg">
  <defs>
    <path d="M0 0L7.55098 0L7.55098 7.53726L0 7.53726L0 0Z" transform="translate(0.7185222 0.022874782)" id="path_1" />
    <clipPath id="mask_1">
      <use xlink:href="#path_1" />
    </clipPath>
  </defs>
  <g id="phone錨" transform="translate(0.25 0.25)">
    <path d="M0.375 0L0.375 101.214L0.375 125.845L0.375 174.079" transform="translate(7.072754 0)" id="Stroke-1" fill="none" fill-rule="evenodd" stroke="#083887" stroke-width="0.5" />
    <g id="Group-5" transform="translate(3 178.22571)">
      <path d="M0 0L7.55098 0L7.55098 7.53726L0 7.53726L0 0Z" transform="translate(0.7185222 0.022874782)" id="Clip-4" fill="none" fill-rule="evenodd" stroke="none" />
      <g clip-path="url(#mask_1)">
        <path d="M6.05555 3.77166C6.02105 5.0166 5.0438 6.05331 3.77105 6.05331C2.52455 6.05331 1.48655 5.01735 1.48655 3.77166C1.48655 2.52671 2.5238 1.49001 3.77105 1.49001C5.0438 1.49001 6.02105 2.52746 6.05555 3.77166C6.08255 4.73046 7.5773 4.73495 7.55105 3.77166C7.5068 2.1739 6.5528 0.770159 5.0363 0.21735C3.57905 -0.314485 1.87505 0.155927 0.884303 1.34169C-0.136447 2.56342 -0.301447 4.35368 0.535553 5.72297C1.3553 7.06754 2.93405 7.75218 4.47755 7.47728C6.2738 7.15817 7.50155 5.54919 7.55105 3.77166C7.5773 2.81061 6.08255 2.81136 6.05555 3.77166" transform="translate(0.7185222 0.022874782)" id="Fill-3" fill="#083887" fill-rule="evenodd" stroke="none" />
      </g>
    </g>
    <path d="M6.68952 0.520957C6.13377 2.30747 6.38277 4.11871 7.58052 5.57114C8.06352 6.15541 8.61252 6.66553 8.97702 7.34043C9.34302 8.01759 9.55002 8.83631 9.54777 9.6056C9.53502 12.7689 5.56452 14.5082 3.11652 12.6191C2.51652 12.1562 2.06952 11.4962 1.79352 10.7959C1.69827 10.5539 1.62252 10.3015 1.56252 10.0483C1.54002 9.95167 1.52502 9.85354 1.50252 9.75691C1.46277 9.59212 1.49577 9.7277 1.50177 9.77414C1.38852 8.83182 -0.10848 8.81983 0.00626961 9.77414C0.41802 13.1936 3.62652 15.6446 7.06002 14.6655C8.31252 14.3082 9.44127 13.4887 10.1823 12.4243C11.374 10.7112 11.2353 8.37039 10.2678 6.58687C9.80127 5.7247 9.05127 5.10972 8.49102 4.32246C7.76802 3.30747 7.77252 2.07077 8.13102 0.917961C8.41752 -0.00188922 6.97452 -0.395148 6.68952 0.520957" transform="translate(0.13720703 185.06543)" id="Fill-6" fill="#083887" fill-rule="evenodd" stroke="none" />
    <path d="M2.26666 0C2.05591 0.173783 1.72216 0.496629 1.48816 0.995506C1.38316 1.21873 0.876155 2.29963 1.45741 3.31386C1.97041 4.20899 2.95966 4.3985 3.11641 4.42547C3.07516 4.46367 2.25241 5.19251 1.24741 4.88464C0.569405 4.6779 0.240905 4.13408 0.164405 3.9985C0.0519055 3.65918 -0.0755945 3.09738 0.0556555 2.4427C0.390155 0.764794 2.10391 0.0636704 2.26666 0" transform="translate(0 191.05872)" id="Fill-8" fill="#083887" fill-rule="evenodd" stroke="none" />
    <path d="M1.4955 6.48708C1.4985 4.56573 1.50075 2.64288 1.50375 0.720787C1.50525 -0.239513 0.00975113 -0.241011 0.00900113 0.720787C0.00600113 2.64288 0.00300113 4.56573 1.12763e-06 6.48708C-0.00149887 7.44813 1.494 7.44963 1.4955 6.48708" transform="translate(6.7421875 172.50476)" id="Fill-10" fill="#083887" fill-rule="evenodd" stroke="none" />
  </g>
</svg>