<?xml version="1.0" encoding="utf-8"?>
<svg width="16px" height="14px" viewBox="0 0 16 14" version="1.1" xmlns:xlink="http://www.w3.org/1999/xlink" xmlns="http://www.w3.org/2000/svg">
  <g id="phone元素13">
    <path d="M0.8 0L15.2 0C15.4122 0 15.6157 0.0819443 15.7657 0.227806C15.9157 0.373668 16 0.571499 16 0.777778L16 13.2222C16 13.4285 15.9157 13.6264 15.7657 13.7722C15.6157 13.918 15.4122 14 15.2 14L0.8 14C0.587827 14 0.384344 13.918 0.234314 13.7722C0.0842856 13.6264 0 13.4285 0 13.2222L0 0.777778C0 0.571499 0.0842856 0.373668 0.234314 0.227806C0.384344 0.0819443 0.587827 0 0.8 0ZM14.4 3.29622L8.0576 8.81845L1.6 3.27911L1.6 12.4444L14.4 12.4444L14.4 3.29622ZM2.0088 1.55556L8.0488 6.73711L14.0016 1.55556L2.0088 1.55556Z" id="Shape" fill="#C31B1F" stroke="none" />
  </g>
</svg>