<?xml version="1.0" encoding="utf-8"?>
<svg width="17px" height="17px" viewBox="0 0 17 17" version="1.1" xmlns:xlink="http://www.w3.org/1999/xlink" xmlns="http://www.w3.org/2000/svg">
  <defs>
    <path d="M0 0L16.761 0L16.761 16.7635L0 16.7635L0 0Z" transform="translate(0.00019287367 0.20843478)" id="path_1" />
    <clipPath id="mask_1">
      <use xlink:href="#path_1" />
    </clipPath>
  </defs>
  <g id="FB_D">
    <path d="M5 5.08859L3.37691 5.08859L3.37691 9L1.67211 9L1.67211 5.11396L0 5.11396L0 3.39405L1.61566 3.39405C1.67657 2.25614 1.6476 1.11301 2.67419 0.378786C3.37023 -0.121892 4.1658 0.0146561 4.99406 0.0236101L4.99406 1.7286C4.6739 1.7286 4.35002 1.73756 4.0306 1.7286C3.57005 1.71517 3.34794 1.92261 3.36131 2.38747C3.37023 2.70086 3.36428 3.01201 3.36428 3.37539L5 3.37539L5 5.08859Z" transform="translate(6 4)" id="Fill-1" fill="#083887" fill-rule="evenodd" stroke="none" />
    <g id="FB_D">
      <path d="M0 0L16.761 0L16.761 16.7635L0 16.7635L0 0Z" transform="translate(0.00019287367 0.20843478)" id="Clip-4" fill="none" fill-rule="evenodd" stroke="none" />
      <g clip-path="url(#mask_1)">
        <path d="M15.2303 11.8666C15.2288 13.5858 13.9449 15.016 12.2309 15.2001C11.919 15.2333 11.6019 15.2289 11.2877 15.2304C10.318 15.2341 9.34899 15.2318 8.37999 15.2318C7.22695 15.2318 6.07317 15.2326 4.92012 15.2311C3.37682 15.2296 2.05673 14.2288 1.65834 12.7417C1.58147 12.452 1.53786 12.1445 1.53639 11.8459C1.52678 9.53906 1.52604 7.2315 1.53269 4.92467C1.53712 3.22541 2.72047 1.84619 4.39904 1.57419C4.58604 1.54389 4.77747 1.53354 4.96743 1.53354C7.23878 1.53058 9.51012 1.53058 11.7807 1.53206C13.5147 1.53354 14.8688 2.6585 15.1837 4.36071C15.2162 4.54032 15.2288 4.72658 15.2295 4.90989C15.2317 7.22928 15.2317 9.54793 15.2303 11.8666M16.6782 4.05324C16.2362 1.67915 14.2125 0.00280046 11.7977 0.0013222C9.51456 -0.000156064 7.23065 -0.00163432 4.94747 0.00427872C4.65182 0.00501785 4.35173 0.0271918 4.06125 0.0811483C1.67978 0.522409 -0.000266787 2.55206 0.000472344 4.97345C0.000472344 7.23297 -0.00174505 9.4925 0.00342887 11.752C0.00342887 12.0307 0.0263419 12.3108 0.066255 12.5858C0.412907 14.951 2.48247 16.75 4.8743 16.7589C7.21143 16.7663 9.54856 16.7655 11.8857 16.7545C12.2323 16.753 12.5871 16.7086 12.9256 16.6295C15.214 16.0929 16.7543 14.1409 16.7595 11.7897C16.7617 10.6537 16.7595 9.51763 16.7595 8.38232C16.7595 7.23445 16.7647 6.08658 16.7558 4.93871C16.7543 4.6438 16.7322 4.34371 16.6782 4.05324Z" transform="translate(0.00019287367 0.20822129)" id="Fill-3" fill="#083887" fill-rule="evenodd" stroke="none" />
      </g>
    </g>
  </g>
</svg>