<?xml version="1.0" encoding="utf-8"?>
<svg width="52px" height="52px" viewBox="0 0 52 52" version="1.1" xmlns:xlink="http://www.w3.org/1999/xlink" xmlns="http://www.w3.org/2000/svg">
  <g id="phone元素3" transform="translate(0.4248047 0.42504883)">
    <path d="M6.94849 9.36421L7.70103 1.17468C7.75584 0.58394 7.32533 0.0601237 6.73952 0.00474219C6.15485 -0.0506393 5.63641 0.38549 5.5816 0.976226L4.56756 12.0191C0.940773 12.6686 0.238483 16.3942 0.0146641 18.8195C-0.0766907 19.8175 0.273883 22.7873 0.647296 22.8381C1.02185 22.8888 2.29739 18.891 2.75188 19.4656C2.96999 19.7425 3.89953 25.4502 3.89953 25.4502C3.89953 25.4502 4.22612 26.4506 4.65549 25.7525C5.5816 24.248 6.34669 19.9548 6.84343 20.0136C7.42582 20.0828 7.58683 24.1165 8.04932 24.0634C8.39761 24.0242 8.98456 22.7019 8.98456 22.7019C9.55553 21.5643 9.97234 20.4751 9.99974 17.9345C10.0146 16.6653 9.38881 14.6358 8.13953 13.3009C7.72272 12.8556 7.2374 12.4887 6.68356 12.251" transform="translate(27 14)" id="Fill-1" fill="#EAC941" fill-rule="evenodd" stroke="none" />
    <g id="Group-6" transform="translate(11 13)">
      <path d="M5.01466 22.7037L5.13566 24.2739C5.17966 24.8538 5.67466 25.2879 6.23786 25.2416C6.80216 25.1963 7.22456 24.6877 7.17946 24.1077L6.34566 13.2691C8.44666 12.4326 9.85136 9.60652 9.60276 6.37348C9.31676 2.6453 6.93966 -0.203393 4.29636 0.0113898C1.65196 0.226172 -0.257642 3.42304 0.0283582 7.15235C0.276958 10.3854 2.09856 12.9492 4.30186 13.4353L4.41736 14.9399L4.81446 20.1003" transform="translate(0.8934418 0.5042015)" id="Fill-3" fill="#EAC941" fill-rule="evenodd" stroke="none" />
      <path d="M5.01466 22.7037L5.13566 24.2739C5.17966 24.8538 5.67466 25.2879 6.23786 25.2416C6.80216 25.1963 7.22456 24.6877 7.17946 24.1077L6.34566 13.2691C8.44666 12.4326 9.85136 9.60652 9.60276 6.37348C9.31676 2.6453 6.93966 -0.203393 4.29636 0.0113898C1.65196 0.226172 -0.257642 3.42304 0.0283582 7.15235C0.276958 10.3854 2.09856 12.9492 4.30186 13.4353L4.41736 14.9399L4.81446 20.1003" transform="translate(0.8934418 0.5042015)" id="Stroke-5" fill="none" fill-rule="evenodd" stroke="#234F9D" stroke-width="0.85" stroke-linecap="round" />
    </g>
    <path d="M6.94849 9.36421L7.70103 1.17468C7.75584 0.58394 7.32533 0.0601237 6.73952 0.00474219C6.15485 -0.0506393 5.63641 0.38549 5.5816 0.976226L4.56756 12.0191C0.940773 12.6686 0.238483 16.3942 0.0146641 18.8195C-0.0766907 19.8175 0.273883 22.7873 0.647296 22.8381C1.02185 22.8888 2.29739 18.891 2.75188 19.4656C2.96999 19.7425 3.89953 25.4502 3.89953 25.4502C3.89953 25.4502 4.22612 26.4506 4.65549 25.7525C5.5816 24.248 6.34669 19.9548 6.84343 20.0136C7.42582 20.0828 7.58683 24.1165 8.04932 24.0634C8.39761 24.0242 8.98456 22.7019 8.98456 22.7019C9.55553 21.5643 9.97234 20.4751 9.99974 17.9345C10.0146 16.6653 9.38881 14.6358 8.13953 13.3009C7.72272 12.8556 7.2374 12.4887 6.68356 12.251" transform="translate(27 14)" id="Stroke-7" fill="none" fill-rule="evenodd" stroke="#234F9D" stroke-width="0.85" stroke-linecap="round" />
    <path d="M7.56625 0C17.1245 3.50402 25 13.3193 25 24.0655C25 37.8362 13.8075 49 0 49" transform="translate(26 1)" id="Stroke-9" fill="none" fill-rule="evenodd" stroke="#234F9D" stroke-width="0.85" stroke-linecap="round" />
    <path d="M14.2217 48C5.81012 43.9374 0 35.2677 0 25.2289C0 11.2961 11.1925 0 25 0" transform="matrix(1 0 0 1 0 -2.2737368E-13)" id="Stroke-11" fill="none" fill-rule="evenodd" stroke="#234F9D" stroke-width="0.85" stroke-linecap="round" />
    <path d="M2.58928 4L0 0.607934L4 0" transform="translate(33 1)" id="Stroke-13" fill="none" fill-rule="evenodd" stroke="#234F9D" stroke-width="0.85" stroke-linecap="round" />
    <path d="M1.63181 0L4 3.28L0 4" transform="translate(12 45)" id="Stroke-15" fill="none" fill-rule="evenodd" stroke="#234F9D" stroke-width="0.85" stroke-linecap="round" />
    <path d="M0.302 0L0.698 6" transform="translate(17 17)" id="Stroke-17" fill="none" fill-rule="evenodd" stroke="#234F9D" stroke-width="0.85" stroke-linecap="round" />
  </g>
</svg>